<!-- Generated by IcoMoon.io -->
<svg version="1.1" xmlns="http://www.w3.org/2000/svg" width="32" height="32" viewBox="0 0 32 32">
<title>feature-tile-04</title>
<path fill="none" stroke-linejoin="miter" stroke-linecap="square" stroke-miterlimit="4" stroke-width="1" stroke="#000" d="M19.5 21.5v-3.15c0.907-0.811 1.481-1.979 1.5-3.281l0-0.003c0-0.006 0-0.012 0-0.019 0-2.449-1.935-4.447-4.36-4.546l-0.009-0c-0.039-0.001-0.085-0.002-0.131-0.002-2.485 0-4.5 2.015-4.5 4.5 0 0.001 0 0.001 0 0.002v-0 0.5l-1 2.5 1 0.5v2c0 0.552 0.448 1 1 1v0h2c1.381 0 2.5-1.119 2.5-2.5v0-2.5"></path>
<path fill="none" stroke-linejoin="miter" stroke-linecap="square" stroke-miterlimit="4" stroke-width="1" stroke="#000" d="M19 15c0 0.828-0.672 1.5-1.5 1.5s-1.5-0.672-1.5-1.5c0-0.828 0.672-1.5 1.5-1.5s1.5 0.672 1.5 1.5z"></path>
</svg>
