<!-- Generated by IcoMoon.io -->
<svg version="1.1" xmlns="http://www.w3.org/2000/svg" width="32" height="32" viewBox="0 0 32 32">
<title>linkedin</title>
<path fill="#fff" d="M26.732 26.55h-4.597v-7.129c0-1.7-0.031-3.888-2.391-3.888-2.394 0-2.761 1.852-2.761 3.764v7.252h-4.597v-14.659h4.413v2.003h0.062c0.442-0.748 1.080-1.363 1.847-1.78s1.634-0.62 2.508-0.588c4.659 0 5.518 3.035 5.518 6.982l-0.002 8.042zM7.199 9.886c-0.528 0-1.043-0.155-1.482-0.445s-0.781-0.703-0.983-1.185c-0.202-0.483-0.255-1.014-0.152-1.526s0.357-0.983 0.73-1.353c0.373-0.37 0.848-0.621 1.366-0.723s1.054-0.050 1.541 0.15c0.488 0.2 0.904 0.538 1.197 0.973s0.45 0.945 0.45 1.467c0 0.347-0.069 0.69-0.203 1.011s-0.33 0.612-0.578 0.857c-0.248 0.245-0.542 0.44-0.865 0.573s-0.671 0.201-1.021 0.201zM9.497 26.55h-4.602v-14.66h4.602v14.66zM29.024 0.376h-26.439c-0.6-0.007-1.178 0.223-1.608 0.638s-0.675 0.982-0.682 1.576v26.287c0.007 0.594 0.252 1.162 0.681 1.577s1.008 0.645 1.608 0.639h26.439c0.602 0.007 1.182-0.222 1.613-0.637s0.678-0.984 0.686-1.579v-26.289c-0.009-0.595-0.256-1.163-0.686-1.578s-1.011-0.644-1.612-0.636z"></path>
</svg>
