<!-- Generated by IcoMoon.io -->
<svg version="1.1" xmlns="http://www.w3.org/2000/svg" width="55" height="32" viewBox="0 0 55 32">
<title>logo-text</title>
<path fill="#a5b862" d="M32.88 15.242h-11.289v-11.387h11.289v11.387zM36.757 0c-7.431 0-11.597 0-19.027 0v19.027h19.027v-19.027z"></path>
<path fill="#a5b862" d="M31.135 5.622h-7.784v7.784h7.784v-7.784z"></path>
<path fill="#3a6771" d="M48.073 31.863v-5.858l2.488 3.026 2.494-3.026v5.858h0.999v-7.504h-0.896l-2.597 3.154-2.592-3.154h-0.897v7.504h1.001zM38.517 29.597c0.194 0.476 0.48 0.908 0.842 1.272 0.355 0.359 0.777 0.644 1.243 0.838s0.964 0.294 1.468 0.294c0.508 0.004 1.012-0.094 1.482-0.288s0.896-0.481 1.254-0.843c0.355-0.357 0.636-0.78 0.828-1.246s0.29-0.965 0.29-1.469c0.005-0.518-0.092-1.032-0.285-1.513-0.194-0.475-0.481-0.907-0.844-1.269-0.352-0.361-0.773-0.647-1.239-0.839-0.471-0.195-0.976-0.295-1.486-0.292-0.502-0.002-1 0.097-1.464 0.29-0.94 0.397-1.688 1.148-2.082 2.091-0.193 0.462-0.293 0.958-0.293 1.459-0.004 0.519 0.093 1.034 0.285 1.517zM39.534 27.016c0.133-0.344 0.335-0.657 0.594-0.92 0.259-0.265 0.566-0.479 0.904-0.628 0.327-0.145 0.681-0.22 1.039-0.22 0.364-0.001 0.725 0.073 1.059 0.219s0.635 0.36 0.882 0.628c0.26 0.27 0.467 0.588 0.608 0.936 0.208 0.52 0.262 1.090 0.157 1.64s-0.368 1.059-0.754 1.464c-0.25 0.267-0.553 0.48-0.889 0.625-0.336 0.141-0.698 0.213-1.062 0.212s-0.725-0.075-1.061-0.217c-0.334-0.143-0.636-0.354-0.884-0.62-0.256-0.266-0.457-0.579-0.592-0.923-0.138-0.348-0.208-0.719-0.207-1.094-0.001-0.378 0.068-0.752 0.206-1.104v0.002zM35.916 30.753c-0.409 0.143-0.839 0.217-1.272 0.22-0.819 0-1.498-0.273-2.038-0.818s-0.811-1.224-0.811-2.036c0-0.823 0.275-1.507 0.824-2.052s1.245-0.818 2.088-0.818c0.397 0.003 0.791 0.066 1.17 0.186 0.448 0.144 0.88 0.335 1.287 0.571v-1.163c-0.401-0.195-0.82-0.348-1.252-0.457-0.395-0.096-0.799-0.145-1.206-0.145-0.542-0.007-1.081 0.088-1.587 0.282-0.484 0.192-0.923 0.481-1.292 0.849-0.359 0.353-0.643 0.775-0.834 1.242-0.194 0.464-0.294 0.963-0.294 1.467-0.006 0.644 0.148 1.279 0.446 1.848 0.294 0.564 0.725 1.044 1.252 1.397 0.327 0.219 0.685 0.389 1.062 0.502 0.383 0.115 0.78 0.172 1.18 0.171 0.44-0.002 0.877-0.062 1.301-0.18 0.449-0.125 0.882-0.3 1.291-0.523v-1.214c-0.406 0.281-0.848 0.507-1.313 0.671zM27.788 31.863v-3.702l2.89-3.803h-1.241l-2.153 2.847-2.103-2.847h-1.219l2.782 3.75v3.755h1.043zM20.48 31.917l3.236-7.558h-1.061l-2.291 5.352-2.248-5.353h-1.076l3.174 7.558 0.266 0.001zM13.486 31.917l3.237-7.558h-1.060l-2.293 5.352-2.246-5.353h-1.077l3.174 7.558 0.266 0.001zM6.826 28.688l1.108-2.704 1.138 2.704 0.422 0.965 0.928 2.21h1.067l-3.164-7.504h-0.753l-3.123 7.504h1.057l0.916-2.21 0.404-0.965zM0.912 31.823c0.337 0.119 0.693 0.177 1.051 0.171 0.622 0 1.132-0.187 1.53-0.561s0.597-0.847 0.598-1.418c0-0.505-0.106-0.928-0.319-1.269s-0.665-0.735-1.355-1.183l-0.154-0.097c-0.849-0.55-1.274-1.012-1.273-1.383-0.003-0.123 0.024-0.246 0.077-0.357s0.132-0.208 0.23-0.284c0.205-0.167 0.468-0.25 0.791-0.25 0.277 0.002 0.551 0.063 0.804 0.179 0.316 0.152 0.611 0.346 0.875 0.577v-1.218c-0.254-0.165-0.528-0.295-0.816-0.388-0.266-0.084-0.543-0.127-0.822-0.127-0.625 0-1.136 0.187-1.533 0.561s-0.595 0.852-0.594 1.435c0 0.415 0.103 0.773 0.311 1.073s0.718 0.725 1.533 1.271c0.525 0.346 0.857 0.613 0.996 0.799 0.14 0.184 0.214 0.41 0.209 0.641 0 0.296-0.103 0.531-0.31 0.705s-0.488 0.261-0.845 0.261c-0.334 0.001-0.662-0.088-0.95-0.258-0.297-0.172-0.609-0.453-0.935-0.842v1.416c0.265 0.235 0.571 0.42 0.902 0.545z"></path>
</svg>
