<!-- Generated by IcoMoon.io -->
<svg version="1.1" xmlns="http://www.w3.org/2000/svg" width="39" height="32" viewBox="0 0 39 32">
<title>twitter</title>
<path d="M38 4.723c-1.4 0.7-2.8 0.933-4.433 1.167 1.633-0.933 2.8-2.333 3.267-4.2-1.4 0.933-3.033 1.4-4.9 1.867-1.4-1.4-3.5-2.333-5.6-2.333-4.9 0-8.633 4.667-7.467 9.333-6.3-0.233-11.9-3.267-15.867-7.933-2.1 3.5-0.933 7.933 2.333 10.267-1.167 0-2.333-0.467-3.5-0.933 0 3.5 2.567 6.767 6.067 7.7-1.167 0.233-2.333 0.467-3.5 0.233 0.933 3.033 3.733 5.367 7.233 5.367-2.8 2.1-7 3.267-10.967 2.8 3.5 2.1 7.467 3.5 11.667 3.5 14.233 0 22.167-11.9 21.7-22.867 1.633-0.933 3.033-2.333 3.967-3.967z"></path>
</svg>
