<!-- Generated by IcoMoon.io -->
<svg version="1.1" xmlns="http://www.w3.org/2000/svg" width="46" height="32" viewBox="0 0 46 32">
<title>youtube</title>
<path fill="#fff" d="M43.948 5.196c-0.501-1.873-1.969-3.349-3.831-3.853-3.401-0.936-17.006-0.936-17.006-0.936s-13.605 0-17.006 0.9c-1.826 0.504-3.33 2.017-3.831 3.889-0.895 3.421-0.895 10.515-0.895 10.515s0 7.13 0.895 10.515c0.501 1.873 1.969 3.349 3.831 3.853 3.437 0.936 17.006 0.936 17.006 0.936s13.605 0 17.006-0.9c1.862-0.504 3.33-1.981 3.831-3.853 0.895-3.421 0.895-10.515 0.895-10.515s0.036-7.13-0.895-10.551z"></path>
<path fill="#000" d="M31.71 16.573l-11.951-6.923v13.846l11.951-6.923z"></path>
</svg>
