<!-- Generated by IcoMoon.io -->
<svg version="1.1" xmlns="http://www.w3.org/2000/svg" width="32" height="32" viewBox="0 0 32 32">
<title>feature-tile-06</title>
<path fill="none" stroke-linejoin="miter" stroke-linecap="square" stroke-miterlimit="4" stroke-width="1" stroke="#000" d="M20.5 13.5c0 0.828-0.672 1.5-1.5 1.5s-1.5-0.672-1.5-1.5c0-0.828 0.672-1.5 1.5-1.5s1.5 0.672 1.5 1.5z"></path>
<path fill="none" stroke-linejoin="miter" stroke-linecap="square" stroke-miterlimit="4" stroke-width="1" stroke="#000" d="M14.93 11.59c-2.53 0.404-4.43 2.21-4.43 4.41 0 2.5 2.45 4.5 5.5 4.5 0.032 0.001 0.070 0.001 0.107 0.001 0.514 0 1.010-0.073 1.48-0.21l-0.037 0.009 2.95 1.2-0.3-2.6c0.415-0.411 0.751-0.9 0.984-1.444l0.011-0.030"></path>
</svg>
