<!-- Generated by IcoMoon.io -->
<svg version="1.1" xmlns="http://www.w3.org/2000/svg" width="32" height="32" viewBox="0 0 32 32">
<title>feature-tile-05</title>
<path fill="none" stroke-linejoin="miter" stroke-linecap="square" stroke-miterlimit="4" stroke-width="1" stroke="#000" d="M14.5 21h5.114c0 0 0 0 0 0 0.447 0 0.826-0.294 0.954-0.699l0.002-0.007 1.384-4.5c0.028-0.088 0.044-0.189 0.044-0.294 0-0.552-0.447-1-0.999-1h-3.5v-2c0-1.187-0.625-1.747-1.382-1.93-0.035-0.008-0.074-0.013-0.115-0.013-0.278 0-0.503 0.225-0.503 0.503v0 1.941l-2.5 3"></path>
<path fill="none" stroke-linejoin="miter" stroke-linecap="square" stroke-miterlimit="4" stroke-width="1" stroke="#000" d="M11 15h2v6h-2z"></path>
</svg>
