<!-- Generated by IcoMoon.io -->
<svg version="1.1" xmlns="http://www.w3.org/2000/svg" width="258" height="32" viewBox="0 0 258 32">
<title>illustration-section-02</title>
<path d="M230.97 30.254l0.79-0.533-7.428-3.604c-4.726-2.163-5.447-2.523-6.168-2.885l3.968 1.805c-0.707-0.35-1.46-0.734-2.18-1.17-0.763-0.47-1.425-0.984-2.025-1.562l0.004 0.004c-0.588-0.565-1.174-1.227-1.793-2.022-0.359-0.461-0.719-0.94-1.067-1.403-0.537-0.73-0.74-0.997-0.944-1.263l0.325 0.442c-0.621-0.818-1.199-1.483-1.764-2.034-0.211-0.206-0.435-0.403-0.668-0.588l-0.018-0.014c-0.016-0.012-0.031-0.025-0.047-0.038-0.023-0.018-0.046-0.034-0.069-0.052-0.279-0.215-0.593-0.422-0.922-0.605l-0.038-0.020c-0.053-0.028-0.105-0.055-0.158-0.081-0.032-0.016-0.065-0.034-0.097-0.050l-0.011-0.005c-0.707-0.343-1.516-0.576-2.402-0.693-0.242-0.034-0.562-0.067-0.884-0.088l-0.044-0.002c-0.051-0.003-0.104-0.006-0.156-0.009-0.058-0.003-0.115-0.007-0.175-0.010-0.056-0.003-0.114-0.004-0.171-0.006s-0.113-0.005-0.171-0.007c-0.064-0.002-0.129-0.003-0.194-0.004-0.054-0.001-0.106-0.003-0.161-0.003-0.063-0.001-0.129-0.001-0.193-0.001-0.058 0-0.115-0.001-0.175-0.001-0.125 0-0.252 0.002-0.381 0.004-0.036 0.001-0.072 0.002-0.107 0.002-0.287 0.005-0.574 0.011-0.861 0.018-0.601 0.013-1.222 0.027-1.829 0.030h-0.014c-0.053 0-0.105-0-0.157-0-0.449-0.001-0.875-0.013-1.279-0.038-0.082-0.005-0.162-0.011-0.242-0.017-0.030-0.002-0.061-0.004-0.092-0.006-0.33-0.027-0.646-0.062-0.952-0.106-0.937-0.138-1.778-0.364-2.577-0.673l0.081 0.028c-0.747-0.285-1.458-0.609-2.296-1.007-5.358-2.388-6.093-2.747-6.828-3.107l4.589 2.033-7.253-3.519 0.066 0.948 7.048 3.419c0.672 0.323 1.343 0.646 2.017 0.967 0.715 0.341 1.485 0.7 2.271 1.017 0.793 0.317 1.603 0.558 2.406 0.714 0.801 0.155 1.659 0.247 2.626 0.282 0.756 0.027 1.537 0.033 2.292 0.038l0.47 0.004c1.045 0.008 1.933 0.068 2.714 0.183 0.906 0.133 1.736 0.38 2.468 0.735l0.014 0.007c0.726 0.354 1.429 0.85 2.088 1.472 0.572 0.54 1.166 1.197 1.815 2.008l0.319 0.399c0.459 0.574 0.933 1.168 1.408 1.731 0.619 0.734 1.216 1.348 1.825 1.879 0.287 0.251 0.602 0.501 0.929 0.736l0.038 0.026c0.276 0.197 0.565 0.383 0.859 0.561 0.065 0.039 0.129 0.081 0.195 0.119 0.723 0.418 1.472 0.797 2.172 1.143 0.7 0.345 1.399 0.688 2.096 1.029l0.102 0.050 6.997 3.395zM229.938 30.95l0.79-0.533-6.969-3.382c-0.698-0.342-1.397-0.684-2.097-1.030-0.701-0.346-1.451-0.726-2.187-1.151-0.046-0.027-0.091-0.055-0.137-0.082-0.376-0.225-0.682-0.427-0.978-0.64l0.041 0.028c-0.372-0.266-0.693-0.521-1.001-0.79l0.016 0.013c-0.619-0.54-1.224-1.164-1.851-1.906-0.477-0.565-0.952-1.16-1.411-1.735l-0.32-0.4c-0.64-0.8-1.226-1.448-1.791-1.982-0.073-0.069-0.152-0.141-0.232-0.212l-0.010-0.009c-0.552-0.487-1.132-0.882-1.728-1.179-0.023-0.011-0.045-0.024-0.068-0.035-0.708-0.343-1.514-0.583-2.394-0.713-0.77-0.113-1.646-0.172-2.68-0.181l-0.464-0.003c-0.759-0.005-1.543-0.011-2.305-0.038-0.98-0.035-1.851-0.129-2.665-0.286-0.819-0.159-1.644-0.404-2.452-0.728-0.377-0.147-0.571-0.23-0.765-0.315l0.174 0.069c-0.564-0.243-1.113-0.5-1.635-0.748-0.020-0.009-0.040-0.019-0.060-0.028-0.658-0.314-1.315-0.629-1.97-0.944l-0.059-0.028c-0.042-0.020-0.083-0.040-0.124-0.060l-0.092-0.044-6.69-3.246 0.066 0.949 6.977 3.382c0.308 0.148 0.617 0.296 0.926 0.444 0.201 0.096 0.403 0.193 0.604 0.289 0.71 0.338 1.475 0.698 2.266 1.033 0.803 0.339 1.578 0.6 2.37 0.796 0.797 0.196 1.657 0.338 2.558 0.423 0.897 0.084 1.811 0.131 2.694 0.176 1.053 0.054 1.901 0.142 2.667 0.276 0.893 0.156 1.717 0.415 2.448 0.769l0.017 0.008c0.725 0.353 1.43 0.836 2.099 1.434 0.58 0.519 1.17 1.127 1.858 1.915 0.582 0.666 1.184 1.355 1.791 1.995 0.618 0.652 1.255 1.237 1.893 1.739 0.628 0.492 1.322 0.951 2.064 1.363 0.037 0.020 0.074 0.040 0.111 0.061 0.002 0.011 0.215 0.127 0.429 0.241l0.222 0.108c0.050 0.027 0.101 0.053 0.151 0.079-0.145-0.062 0.019 0.024 0.184 0.108l0.317 0.148c-0.27-0.114-0.018 0.014 0.235 0.141l0.534 0.243c0.733 0.362 1.466 0.72 2.197 1.078l6.438 3.123zM228.905 31.647l0.79-0.533-6.304-3.058c-4.912-2.245-5.634-2.605-6.355-2.967l4.154 1.887c-0.744-0.35-0.996-0.479-1.249-0.608l0.478 0.223-0.029-0.015c-0.469-0.227-0.624-0.308-0.779-0.389l0.305 0.146-0.15-0.078c-0.42-0.214-0.635-0.33-0.848-0.449l0.193 0.098c-0.037-0.020-0.075-0.040-0.112-0.061-0.754-0.419-1.46-0.885-2.097-1.386-0.648-0.509-1.294-1.103-1.921-1.764-0.611-0.644-1.214-1.335-1.798-2.003-0.681-0.779-1.264-1.381-1.837-1.893-0.657-0.587-1.352-1.061-2.058-1.403-0.71-0.344-1.511-0.595-2.381-0.747-0.756-0.132-1.594-0.219-2.637-0.272-0.887-0.046-1.805-0.093-2.705-0.177-0.914-0.086-1.787-0.23-2.595-0.429-0.805-0.199-1.593-0.464-2.408-0.808-0.799-0.339-1.566-0.699-2.276-1.038-0.68-0.325-1.358-0.651-2.036-0.977l-0.209-0.1-6.134-2.976 0.066 0.949 7.946 3.856 0.452 0.21c0.592 0.275 1.205 0.56 1.813 0.83 0.811 0.358 1.576 0.643 2.338 0.871 0.782 0.233 1.62 0.424 2.489 0.569 0.873 0.144 1.771 0.25 2.611 0.343 1.041 0.116 1.868 0.243 2.604 0.401 0.878 0.189 1.692 0.463 2.42 0.816l0.017 0.008c0.722 0.352 1.434 0.817 2.118 1.384 0.581 0.481 1.19 1.049 1.917 1.788 0.687 0.697 1.268 1.275 1.871 1.828 0.645 0.591 1.307 1.127 1.966 1.595 0.643 0.455 1.331 0.877 2.104 1.291 0.788 0.419 1.586 0.815 2.192 1.113 0.695 0.342 1.39 0.682 2.082 1.020l0.118 0.058 5.873 2.849zM193.452 9.938l-7.803-3.786 0.066 0.947 7.378 3.58c-2.978-1.286-2.242-0.927-1.505-0.568l3.747 1.644c0.835 0.397 1.541 0.719 2.277 0.999 0.703 0.276 1.526 0.496 2.379 0.624l0.064 0.008c0.803 0.116 1.681 0.169 2.684 0.165 0.040 0 0.081-0.001 0.121-0.001 0.266-0.002 0.533-0.005 0.801-0.009 0.096-0.002 0.191-0.004 0.288-0.006 0.213-0.004 0.426-0.008 0.635-0.013 0.322-0.007 0.643-0.014 0.964-0.020 1.047-0.018 1.944 0.024 2.742 0.13 0.913 0.12 1.747 0.361 2.479 0.716l0.014 0.007c0.727 0.354 1.426 0.856 2.079 1.492 0.575 0.56 1.16 1.234 1.79 2.062 0.204 0.269 0.408 0.54 0.611 0.81 0.351 0.466 0.713 0.948 1.073 1.412 0.612 0.787 1.191 1.44 1.769 1.995 0.584 0.562 1.231 1.065 1.928 1.496l0.049 0.028c0.714 0.433 1.46 0.813 2.161 1.16-3.245-1.442-2.524-1.082-1.803-0.723l3.999 1.801 7.563 3.669 0.789-0.532-8.093-3.927c-0.698-0.342-1.397-0.684-2.097-1.030-0.706-0.349-1.457-0.734-2.175-1.189-0.711-0.454-1.379-1.003-1.986-1.635-0.565-0.587-1.137-1.275-1.751-2.104 0.035 0.064-0.216-0.276-0.466-0.617l-0.298-0.428c-0.55-0.77-0.845-1.168-1.142-1.565l0.244 0.341c-0.608-0.817-1.183-1.487-1.756-2.048-0.633-0.619-1.31-1.107-2.012-1.449l-0.014-0.007c-0.707-0.343-1.516-0.575-2.403-0.69-0.796-0.103-1.683-0.14-2.711-0.112-0.487 0.013-0.976 0.031-1.465 0.050-0.457 0.017-0.914 0.034-1.368 0.047-1.040 0.029-1.942 0.002-2.761-0.083-0.875-0.092-1.727-0.284-2.535-0.571-0.748-0.27-1.463-0.592-2.305-0.994h-0c-0.583-0.278-1.164-0.557-1.745-0.836l-0.501-0.24zM186.105 5.175l-0.502 0.338 0.024 0.344 8.040 3.9c0.712 0.342 1.425 0.686 2.14 1.027 0.833 0.397 1.54 0.716 2.282 0.984 0.787 0.28 1.62 0.468 2.476 0.558 0.807 0.084 1.699 0.111 2.727 0.082 0.454-0.013 0.91-0.030 1.366-0.047 0.49-0.018 0.98-0.037 1.467-0.050 1.041-0.028 1.941 0.009 2.75 0.114 0.914 0.118 1.748 0.358 2.481 0.713l0.013 0.006c0.727 0.355 1.427 0.858 2.080 1.497 0.582 0.57 1.165 1.25 1.782 2.078 0.302 0.405 0.605 0.822 0.898 1.225 0.254 0.35 0.508 0.699 0.764 1.045 0.608 0.821 1.174 1.501 1.73 2.079 0.594 0.617 1.246 1.154 1.94 1.597 0.703 0.446 1.449 0.829 2.151 1.176-4.67-2.086-3.948-1.726-3.226-1.366l5.425 2.446 8.122 3.941 0.183-0.123-0.051-0.728-8.074-3.918c-0.673-0.329-1.348-0.659-2.022-0.992-0.711-0.351-1.465-0.739-2.17-1.204-0.688-0.458-1.347-1.027-1.958-1.694-0.545-0.595-1.111-1.297-1.728-2.147-0.161-0.221-0.321-0.443-0.481-0.665-0.384-0.532-0.78-1.082-1.177-1.61-0.606-0.807-1.183-1.472-1.764-2.031-0.636-0.612-1.315-1.096-2.018-1.439l-0.014-0.007c-0.708-0.344-1.516-0.579-2.398-0.701-0.802-0.11-1.686-0.153-2.702-0.129-0.643 0.015-1.303 0.042-1.941 0.069-0.298 0.012-0.596 0.025-0.893 0.036-1.058 0.040-1.968 0.027-2.781-0.038-0.908-0.072-1.77-0.245-2.564-0.513-0.835-0.284-1.632-0.655-2.314-0.981-0.619-0.296-1.237-0.593-1.854-0.89l-0.39-0.188-7.818-3.793zM187.139 4.479l-0.79 0.533 8.036 3.898c-4.301-1.876-3.68-1.572-3.059-1.27l4.95 2.177c0.675 0.322 1.465 0.69 2.287 0.97 0.773 0.262 1.616 0.43 2.503 0.501 0.803 0.064 1.703 0.076 2.751 0.037 0.297-0.011 0.594-0.023 0.891-0.036 0.64-0.027 1.302-0.054 1.948-0.069 1.030-0.024 1.927 0.019 2.743 0.131 0.909 0.125 1.742 0.369 2.475 0.724l0.016 0.008c0.727 0.355 1.427 0.853 2.082 1.483 0.591 0.569 1.177 1.243 1.791 2.061 0.398 0.53 0.795 1.080 1.178 1.612 0.161 0.222 0.321 0.445 0.482 0.666 0.612 0.842 1.171 1.537 1.71 2.125 0.597 0.651 1.24 1.208 1.912 1.654 0.694 0.458 1.439 0.842 2.142 1.188-3.847-1.713-3.127-1.353-2.405-0.994l4.602 2.071 7.767 3.768-0.066-0.948-7.339-3.56c-5.854-2.666-6.576-3.027-7.298-3.388l5.097 2.31c-0.827-0.407-1.512-0.77-2.166-1.216-0.672-0.46-1.325-1.042-1.941-1.728-0.031-0.034-0.062-0.070-0.093-0.105-0.509-0.575-1.030-1.23-1.63-2.051l-0.221-0.303c-0.471-0.645-0.958-1.312-1.448-1.946-0.608-0.786-1.191-1.437-1.784-1.99-0.64-0.597-1.322-1.074-2.029-1.418l-0.015-0.007c-0.712-0.345-1.516-0.588-2.39-0.722-0.804-0.123-1.681-0.179-2.682-0.169-0.785 0.008-1.593 0.036-2.375 0.064l-0.447 0.016c-1.086 0.038-1.971 0.029-2.784-0.027-0.926-0.064-1.794-0.225-2.581-0.479-0.828-0.27-1.6-0.629-2.32-0.973-5.598-2.499-6.335-2.86-7.071-3.222l4.827 2.143-7.255-3.52zM188.171 3.782l-0.79 0.533 7.123 3.456c0.746 0.36 1.494 0.72 2.243 1.078 0.712 0.341 1.475 0.695 2.289 0.96 0.767 0.248 1.615 0.405 2.52 0.467 0.807 0.056 1.683 0.064 2.758 0.026l0.446-0.016c0.784-0.028 1.594-0.057 2.382-0.065 1.015-0.010 1.905 0.047 2.723 0.172 0.899 0.138 1.728 0.389 2.462 0.745l0.016 0.008c0.729 0.355 1.432 0.847 2.090 1.461 0.603 0.562 1.196 1.223 1.812 2.020l0 0c0.492 0.637 0.98 1.305 1.452 1.952l0.221 0.303c0.602 0.823 1.123 1.478 1.634 2.053 0.024 0.027 0.048 0.055 0.072 0.082 0.601 0.67 1.238 1.238 1.895 1.688 0.642 0.438 1.317 0.796 2.135 1.198 0.735 0.361 1.468 0.72 2.2 1.078l7.207 3.497-0.066-0.948-6.912-3.354c-6.521-2.962-7.2-3.301-7.88-3.64l5.808 2.627c-0.672-0.33-1.45-0.724-2.165-1.221-0.664-0.461-1.315-1.045-1.936-1.735-0.531-0.591-1.081-1.27-1.731-2.135-0.548-0.729-1.114-1.484-1.692-2.2-0.613-0.76-1.206-1.393-1.811-1.935-0.651-0.583-1.348-1.056-2.059-1.401-0.715-0.347-1.516-0.599-2.38-0.749-0.803-0.14-1.672-0.213-2.655-0.224-0.897-0.010-1.824 0.010-2.722 0.030l-0.075 0.002c-1.092 0.024-1.973 0.010-2.773-0.046-0.935-0.065-1.805-0.223-2.584-0.47-0.837-0.265-1.628-0.635-2.325-0.961l-8.934-4.335zM189.204 3.086l-0.79 0.532 8.799 4.269c0.69 0.323 1.473 0.689 2.293 0.949 0.761 0.241 1.611 0.395 2.525 0.459 0.792 0.055 1.666 0.070 2.75 0.046l0.075-0.002c0.899-0.020 1.829-0.040 2.73-0.030 0.997 0.011 1.879 0.086 2.696 0.228 0.887 0.154 1.71 0.414 2.447 0.771 0.732 0.358 1.449 0.841 2.117 1.44 0.615 0.551 1.217 1.194 1.839 1.965 0.577 0.714 1.146 1.471 1.695 2.203 0.649 0.865 1.195 1.538 1.719 2.12 0.608 0.676 1.245 1.247 1.892 1.697 0.699 0.486 1.467 0.875 2.132 1.202 0.735 0.361 1.468 0.719 2.2 1.076l6.651 3.227-0.066-0.948-8.429-4.089c-0.784-0.392-1.486-0.754-2.164-1.223-0.66-0.457-1.314-1.035-1.943-1.719-0.17-0.184-0.353-0.39-0.533-0.599l-0.028-0.033c-0.354-0.411-0.732-0.874-1.155-1.413-0.012-0.016-0.024-0.030-0.036-0.046-0.013-0.017-0.027-0.035-0.041-0.052-0.128-0.163-0.255-0.325-0.382-0.486-0.097-0.123-0.197-0.248-0.296-0.372-0.042-0.053-0.084-0.106-0.126-0.158-0.355-0.444-0.642-0.791-0.935-1.134l0.056 0.068c-0.623-0.732-1.225-1.344-1.842-1.872-0.657-0.563-1.352-1.022-2.075-1.374-0.719-0.348-1.516-0.61-2.369-0.778-0.799-0.158-1.658-0.251-2.625-0.288-0.899-0.034-1.821-0.035-2.765-0.033-1.097 0.002-1.971-0.026-2.751-0.089-0.934-0.075-1.8-0.239-2.575-0.485-0.836-0.266-1.626-0.638-2.323-0.967l-8.371-4.062zM190.236 2.389l-0.79 0.532 8.237 3.997c0.688 0.325 1.47 0.693 2.291 0.954 0.756 0.24 1.604 0.4 2.519 0.474 0.773 0.063 1.64 0.091 2.73 0.089 0.947-0.002 1.871-0.001 2.775 0.033 0.981 0.036 1.852 0.132 2.664 0.292 0.874 0.172 1.692 0.441 2.43 0.799l0.019 0.009c0.732 0.357 1.442 0.828 2.11 1.401 0.627 0.537 1.239 1.159 1.87 1.9 0.078 0.092 0.156 0.186 0.234 0.28 0.508 0.609 1.005 1.237 1.475 1.837l0.021 0.027c0.013 0.017 0.026 0.032 0.038 0.049 0.376 0.481 0.688 0.863 1.006 1.24l-0.054-0.065c0.271 0.321 0.515 0.598 0.765 0.87l-0.017-0.019c0.616 0.67 1.255 1.236 1.9 1.682 0.663 0.459 1.358 0.817 2.132 1.204l8.297 4.025-0.066-0.948-7.871-3.819c-0.753-0.374-1.485-0.748-2.169-1.211-0.67-0.453-1.311-1.003-1.96-1.68-0.532-0.556-1.082-1.181-1.781-2.028-0.646-0.781-1.192-1.431-1.759-2.060-0.634-0.703-1.247-1.294-1.874-1.807-0.658-0.538-1.354-0.988-2.071-1.338l-0.020-0.010c-0.723-0.35-1.516-0.622-2.358-0.807-0.794-0.175-1.642-0.291-2.593-0.354-0.931-0.061-1.896-0.088-2.728-0.108-1.106-0.027-1.945-0.074-2.72-0.152-0.941-0.095-1.777-0.266-2.556-0.522-0.828-0.273-1.619-0.648-2.316-0.978l-7.809-3.789zM191.269 1.693l-0.79 0.532 7.674 3.723c0.689 0.327 1.471 0.698 2.286 0.966 0.762 0.251 1.58 0.418 2.502 0.511 0.766 0.077 1.599 0.124 2.701 0.151 0.836 0.020 1.805 0.047 2.738 0.108 0.964 0.064 1.824 0.181 2.631 0.359 0.861 0.19 1.673 0.468 2.414 0.827l0.021 0.010c0.734 0.358 1.447 0.819 2.12 1.369 0.637 0.521 1.259 1.121 1.902 1.833 0.217 0.239 0.463 0.519 0.705 0.802l0.048 0.057c0.034 0.039 0.067 0.078 0.101 0.117 0.014 0.016 0.028 0.033 0.042 0.049 0.166 0.192 0.451 0.531 0.734 0.872l0.137 0.17c0.696 0.842 1.241 1.463 1.769 2.014 0.626 0.654 1.272 1.207 1.919 1.646 0.67 0.454 1.394 0.823 2.139 1.193l7.74 3.755-0.066-0.948-7.315-3.549c-0.705-0.348-1.455-0.723-2.186-1.159-0.734-0.523-1.379-1.067-1.978-1.658l0.002 0.002c-0.282-0.279-0.557-0.562-0.825-0.85l-0.016-0.017c-0.033-0.035-0.068-0.073-0.101-0.11-0.042-0.046-0.083-0.090-0.127-0.137l-0.012-0.013c-0.205-0.223-0.446-0.491-0.684-0.762l-0.054-0.062c-0.569-0.647-1.181-1.335-1.798-1.979-0.646-0.674-1.27-1.244-1.907-1.742-0.076-0.059-0.152-0.117-0.228-0.174-0.008-0.006-0.015-0.012-0.023-0.017-0.016-0.012-0.032-0.023-0.047-0.034-0.519-0.386-1.107-0.749-1.726-1.059l-0.069-0.031-0.013-0.006c-0.726-0.352-1.515-0.633-2.347-0.835-0.788-0.192-1.626-0.329-2.562-0.42-0.927-0.090-1.874-0.145-2.688-0.189-1.094-0.060-1.921-0.13-2.682-0.229-0.962-0.126-1.82-0.317-2.649-0.575l0.111 0.030-0.005-0.002-0.005-0.002c-0.010-0.004-0.019-0.008-0.029-0.012-0.756-0.299-1.47-0.635-2.258-1.011l-7.246-3.515zM192.301 0.996l-0.79 0.533 7.113 3.451c0.79 0.377 1.506 0.714 2.265 1.014 0.705 0.224 1.547 0.411 2.413 0.527l0.079 0.009c0.751 0.097 1.573 0.167 2.664 0.227 1.010 0.055 1.855 0.109 2.699 0.19 0.947 0.092 1.797 0.231 2.597 0.426 0.849 0.206 1.656 0.494 2.398 0.853 0.008 0.004 0.016 0.008 0.024 0.012 0.734 0.358 1.45 0.808 2.128 1.339 0.648 0.507 1.28 1.084 1.933 1.766 0.622 0.649 1.235 1.338 1.806 1.987 0.715 0.813 1.272 1.411 1.806 1.938 0.585 0.577 1.217 1.111 1.889 1.592l0.047 0.032c0.715 0.425 1.459 0.798 2.159 1.144l7.184 3.485-0.066-0.949-6.758-3.279c-0.67-0.329-1.447-0.715-2.192-1.142-0.752-0.507-1.408-1.027-2.022-1.592l0.012 0.011c-0.554-0.51-1.128-1.085-1.861-1.864-0.584-0.619-1.21-1.277-1.84-1.894-0.658-0.645-1.293-1.194-1.939-1.678-0.013-0.010-0.026-0.019-0.039-0.029-0.603-0.452-1.285-0.874-2.003-1.234l-0.078-0.035-0.013-0.006c-0.47-0.234-1.037-0.463-1.623-0.652l-0.091-0.025c-0.105-0.038-0.309-0.099-0.514-0.155l-0.096-0.022c-0.783-0.208-1.611-0.366-2.531-0.485-0.051-0.007-0.102-0.013-0.152-0.019-0.056-0.007-0.113-0.014-0.169-0.021l-0.127-0.015c-0.070-0.008-0.14-0.016-0.211-0.024l-0.108-0.012c-0.076-0.008-0.151-0.017-0.226-0.025l-0.124-0.013c-0.066-0.007-0.131-0.014-0.196-0.020l-0.312-0.031c0.65 0.050 0.543 0.040 0.435 0.029l-0.748-0.059c0.308 0.020 0.064-0.003-0.18-0.026l-0.528-0.039c-1.076-0.096-1.89-0.194-2.64-0.317-0.962-0.161-1.803-0.376-2.616-0.653l0.116 0.034-0.008-0.003c-0.581-0.236-0.957-0.404-1.328-0.579l0.185 0.078c-0.863-0.383-1.235-0.563-1.607-0.745l0.471 0.209-6.683-3.242zM193.334 0.3l-0.79 0.532 6.55 3.178c0.368 0.177 0.733 0.351 1.099 0.52l0.039 0.018c0.181 0.083 0.363 0.165 0.546 0.246l0.014 0.006c0.186 0.082 0.374 0.162 0.562 0.24 0.685 0.238 1.512 0.449 2.362 0.594l0.096 0.014c0.743 0.122 1.551 0.219 2.621 0.314 1.251 0.098 1.487 0.12 1.724 0.143l-1.037-0.080 0.116 0.011c0.609 0.051 0.746 0.065 0.883 0.079l-0.485-0.040c0.468 0.042 0.597 0.055 0.725 0.069l-0.351-0.031 0.071 0.007c0.093 0.010 0.186 0.020 0.277 0.030l0.060 0.007c0.084 0.010 0.168 0.019 0.251 0.029l0.094 0.011c0.066 0.008 0.131 0.016 0.197 0.024l0.131 0.016c0.934 0.12 1.772 0.281 2.564 0.491 0.21 0.056 0.417 0.116 0.621 0.181 0.69 0.218 1.268 0.452 1.825 0.725l-0.077-0.034 0.013 0.006h0c0.734 0.353 1.454 0.796 2.139 1.307 0.008 0.006 0.015 0.011 0.023 0.017 0.055 0.041 0.109 0.085 0.164 0.127 0.599 0.46 1.19 0.974 1.801 1.573 0.633 0.62 1.262 1.28 1.847 1.902 0.732 0.777 1.302 1.348 1.849 1.851 0.288 0.266 0.598 0.531 0.918 0.784l0.034 0.026c0.113 0.089 0.23 0.175 0.346 0.262 0.053 0.039 0.104 0.080 0.157 0.119 0.035 0.025 0.071 0.049 0.106 0.074 0.136 0.098 0.273 0.195 0.413 0.288 0.731 0.419 1.503 0.803 2.169 1.13l6.627 3.215-0.066-0.949-6.201-3.009c-0.711-0.344-1.469-0.719-2.2-1.12-0.698-0.439-1.388-0.933-2.057-1.473-0.596-0.533-1.215-1.119-1.899-1.795-0.592-0.585-1.226-1.207-1.882-1.81-0.672-0.617-1.316-1.146-1.971-1.617-0.688-0.494-1.402-0.924-2.134-1.276-0.729-0.354-1.513-0.652-2.328-0.885-0.778-0.223-1.596-0.403-2.502-0.548-0.879-0.141-1.769-0.255-2.606-0.36-0.956-0.12-1.807-0.247-2.602-0.388-0.85-0.198-1.672-0.441-2.452-0.723-0.784-0.339-1.553-0.709-2.274-1.059l-6.12-2.969zM233.481 28.866l-4.556 3.073-6.123-2.971c-0.693-0.339-1.387-0.679-2.083-1.021-0.608-0.299-1.407-0.697-2.199-1.117-0.783-0.418-1.48-0.846-2.131-1.307-0.668-0.474-1.338-1.017-1.99-1.615-0.607-0.557-1.191-1.137-1.88-1.837-0.721-0.733-1.324-1.295-1.898-1.771-0.669-0.553-1.364-1.008-2.068-1.351l-0.016-0.008c-0.71-0.344-1.504-0.612-2.362-0.796-0.727-0.156-1.547-0.283-2.579-0.397-0.844-0.094-1.745-0.2-2.625-0.345-0.88-0.146-1.728-0.34-2.52-0.576-0.772-0.232-1.547-0.52-2.368-0.882h-0c-0.61-0.27-1.223-0.556-1.817-0.832l-0.454-0.211-8.080-3.92-0.107-1.531 0.001 0.001-0.066-0.949-0.001-0.001-0.107-1.53 0.001 0-0.067-0.948-0.002-0.001-0.044-0.637 0.744-0.502 0.001 0 0.791-0.534-0.001-0 6.438-4.342 6.251 3.033c0.718 0.349 1.485 0.717 2.257 1.051 0.763 0.277 1.576 0.517 2.409 0.711 0.783 0.139 1.63 0.265 2.582 0.385 0.839 0.105 1.731 0.22 2.614 0.362 0.916 0.147 1.744 0.328 2.532 0.554 0.829 0.238 1.626 0.541 2.369 0.901l0.034 0.016c0.73 0.356 1.449 0.787 2.138 1.282 0.663 0.476 1.316 1.011 1.995 1.636 0.659 0.606 1.294 1.229 1.888 1.816 0.681 0.673 1.298 1.255 1.885 1.782 0.656 0.529 1.338 1.018 2.021 1.448 0.72 0.395 1.474 0.767 2.182 1.11l6.332 3.072 0.087 1.24 0 0 0.194 2.77-0-0 0.066 0.949 0 0 0.087 1.239h0l0.087 1.24 0 0 0.107 1.53-0.001-0 0.051 0.73z"></path>
</svg>
