<!-- Generated by IcoMoon.io -->
<svg version="1.1" xmlns="http://www.w3.org/2000/svg" width="33" height="32" viewBox="0 0 33 32">
<title>logout</title>
<path fill="#cd0d0d" d="M6.699 0h20.364c3.213 0 5.818 2.605 5.818 5.818v20.364c0 3.213-2.605 5.818-5.818 5.818h-20.364c-3.213 0-5.818-2.605-5.818-5.818v-20.364c0-3.213 2.605-5.818 5.818-5.818z"></path>
<path fill="#fff" d="M26.714 5.818h-20.231c-1.236 0-2.248 1.019-2.248 2.265v4.519h2.248v-4.542h20.231v15.89h-20.231v-4.553h-2.248v4.542c0 1.246 1.012 2.242 2.248 2.242h20.231c1.236 0 2.248-0.997 2.248-2.242v-15.856c0-1.257-1.012-2.265-2.248-2.265zM15.474 20.53l4.496-4.53-4.496-4.53v3.398h-11.24v2.265h11.24v3.398z"></path>
</svg>
