<!-- Generated by IcoMoon.io -->
<svg version="1.1" xmlns="http://www.w3.org/2000/svg" width="32" height="32" viewBox="0 0 32 32">
<title>my-account</title>
<path d="M15.771 0.229c-8.706 0-15.771 7.066-15.771 15.771s7.066 15.771 15.771 15.771c8.706 0 15.771-7.066 15.771-15.771s-7.066-15.771-15.771-15.771zM15.771 4.96c2.618 0 4.731 2.113 4.731 4.731s-2.113 4.731-4.731 4.731c-2.618 0-4.731-2.113-4.731-4.731s2.113-4.731 4.731-4.731zM15.771 27.355c-3.943 0-7.428-2.019-9.463-5.078 0.047-3.139 6.309-4.858 9.463-4.858 3.138 0 9.416 1.719 9.463 4.858-2.035 3.060-5.52 5.078-9.463 5.078z"></path>
</svg>
