<svg aria-hidden="true" style="position: absolute; width: 0; height: 0; overflow: hidden;" version="1.1" xmlns="http://www.w3.org/2000/svg" xmlns:xlink="http://www.w3.org/1999/xlink">
<defs>
<symbol id="icon-log-out" viewBox="0 0 33 32">
<path fill="#cd0d0d" style="fill: var(--color1, #cd0d0d)" d="M6.699 0h20.364c3.213 0 5.818 2.605 5.818 5.818v20.364c0 3.213-2.605 5.818-5.818 5.818h-20.364c-3.213 0-5.818-2.605-5.818-5.818v-20.364c0-3.213 2.605-5.818 5.818-5.818z"></path>
<path fill="#fff" style="fill: var(--color2, #fff)" d="M26.714 5.818h-20.231c-1.236 0-2.248 1.019-2.248 2.265v4.519h2.248v-4.542h20.231v15.89h-20.231v-4.553h-2.248v4.542c0 1.246 1.012 2.242 2.248 2.242h20.231c1.236 0 2.248-0.997 2.248-2.242v-15.856c0-1.257-1.012-2.265-2.248-2.265zM15.474 20.53l4.496-4.53-4.496-4.53v3.398h-11.24v2.265h11.24v3.398z"></path>
</symbol>
<symbol id="icon-my-account" viewBox="0 0 32 32">
<path d="M15.771 0.229c-8.706 0-15.771 7.066-15.771 15.771s7.066 15.771 15.771 15.771c8.706 0 15.771-7.066 15.771-15.771s-7.066-15.771-15.771-15.771zM15.771 4.96c2.618 0 4.731 2.113 4.731 4.731s-2.113 4.731-4.731 4.731c-2.618 0-4.731-2.113-4.731-4.731s2.113-4.731 4.731-4.731zM15.771 27.355c-3.943 0-7.428-2.019-9.463-5.078 0.047-3.139 6.309-4.858 9.463-4.858 3.138 0 9.416 1.719 9.463 4.858-2.035 3.060-5.52 5.078-9.463 5.078z"></path>
</symbol>
<symbol id="icon-linkedin" viewBox="0 0 32 32">
<path fill="#fff" style="fill: var(--color2, #fff)" d="M26.732 26.55h-4.597v-7.129c0-1.7-0.031-3.888-2.391-3.888-2.394 0-2.761 1.852-2.761 3.764v7.252h-4.597v-14.659h4.413v2.003h0.062c0.442-0.748 1.080-1.363 1.847-1.78s1.634-0.62 2.508-0.588c4.659 0 5.518 3.035 5.518 6.982l-0.002 8.042zM7.199 9.886c-0.528 0-1.043-0.155-1.482-0.445s-0.781-0.703-0.983-1.185c-0.202-0.483-0.255-1.014-0.152-1.526s0.357-0.983 0.73-1.353c0.373-0.37 0.848-0.621 1.366-0.723s1.054-0.050 1.541 0.15c0.488 0.2 0.904 0.538 1.197 0.973s0.45 0.945 0.45 1.467c0 0.347-0.069 0.69-0.203 1.011s-0.33 0.612-0.578 0.857c-0.248 0.245-0.542 0.44-0.865 0.573s-0.671 0.201-1.021 0.201zM9.497 26.55h-4.602v-14.66h4.602v14.66zM29.024 0.376h-26.439c-0.6-0.007-1.178 0.223-1.608 0.638s-0.675 0.982-0.682 1.576v26.287c0.007 0.594 0.252 1.162 0.681 1.577s1.008 0.645 1.608 0.639h26.439c0.602 0.007 1.182-0.222 1.613-0.637s0.678-0.984 0.686-1.579v-26.289c-0.009-0.595-0.256-1.163-0.686-1.578s-1.011-0.644-1.612-0.636z"></path>
</symbol>
<symbol id="icon-youtube" viewBox="0 0 46 32">
<path fill="#fff" style="fill: var(--color2, #fff)" d="M43.948 5.196c-0.501-1.873-1.969-3.349-3.831-3.853-3.401-0.936-17.006-0.936-17.006-0.936s-13.605 0-17.006 0.9c-1.826 0.504-3.33 2.017-3.831 3.889-0.895 3.421-0.895 10.515-0.895 10.515s0 7.13 0.895 10.515c0.501 1.873 1.969 3.349 3.831 3.853 3.437 0.936 17.006 0.936 17.006 0.936s13.605 0 17.006-0.9c1.862-0.504 3.33-1.981 3.831-3.853 0.895-3.421 0.895-10.515 0.895-10.515s0.036-7.13-0.895-10.551z"></path>
<path fill="#000" style="fill: var(--color3, #000)" d="M31.71 16.573l-11.951-6.923v13.846l11.951-6.923z"></path>
</symbol>
<symbol id="icon-redfox" viewBox="0 0 26 32">
<path d="M0 0.029v12.676l6.221-6.221-6.221-6.455z"></path>
<path d="M19.38 6.455l6.221 6.221v-12.676l-6.221 6.455z"></path>
<path d="M0.765 13.983l11.61 17.048-5.575-23.082-6.035 6.033z"></path>
<path d="M13.18 31.032l11.61-17.048-6.035-6.033-5.575 23.082z"></path>
<path d="M17.361 7.7h-9.176l4.588 19.992 4.588-19.992z"></path>
</symbol>
<symbol id="icon-twitter" viewBox="0 0 39 32">
<path d="M38 4.723c-1.4 0.7-2.8 0.933-4.433 1.167 1.633-0.933 2.8-2.333 3.267-4.2-1.4 0.933-3.033 1.4-4.9 1.867-1.4-1.4-3.5-2.333-5.6-2.333-4.9 0-8.633 4.667-7.467 9.333-6.3-0.233-11.9-3.267-15.867-7.933-2.1 3.5-0.933 7.933 2.333 10.267-1.167 0-2.333-0.467-3.5-0.933 0 3.5 2.567 6.767 6.067 7.7-1.167 0.233-2.333 0.467-3.5 0.233 0.933 3.033 3.733 5.367 7.233 5.367-2.8 2.1-7 3.267-10.967 2.8 3.5 2.1 7.467 3.5 11.667 3.5 14.233 0 22.167-11.9 21.7-22.867 1.633-0.933 3.033-2.333 3.967-3.967z"></path>
</symbol>
</defs>
</svg>
