<svg aria-hidden="true" style="position: absolute; width: 0; height: 0; overflow: hidden;" version="1.1" xmlns="http://www.w3.org/2000/svg" xmlns:xlink="http://www.w3.org/1999/xlink">
<defs>
<symbol id="icon-log-out" viewBox="0 0 33 32">
<path fill="#cd0d0d" style="fill: var(--color1, #cd0d0d)" d="M6.699 0h20.364c3.213 0 5.818 2.605 5.818 5.818v20.364c0 3.213-2.605 5.818-5.818 5.818h-20.364c-3.213 0-5.818-2.605-5.818-5.818v-20.364c0-3.213 2.605-5.818 5.818-5.818z"></path>
<path fill="#fff" style="fill: var(--color2, #fff)" d="M26.714 5.818h-20.231c-1.236 0-2.248 1.019-2.248 2.265v4.519h2.248v-4.542h20.231v15.89h-20.231v-4.553h-2.248v4.542c0 1.246 1.012 2.242 2.248 2.242h20.231c1.236 0 2.248-0.997 2.248-2.242v-15.856c0-1.257-1.012-2.265-2.248-2.265zM15.474 20.53l4.496-4.53-4.496-4.53v3.398h-11.24v2.265h11.24v3.398z"></path>
</symbol>
<symbol id="icon-my-account" viewBox="0 0 32 32">
<path d="M15.771 0.229c-8.706 0-15.771 7.066-15.771 15.771s7.066 15.771 15.771 15.771c8.706 0 15.771-7.066 15.771-15.771s-7.066-15.771-15.771-15.771zM15.771 4.96c2.618 0 4.731 2.113 4.731 4.731s-2.113 4.731-4.731 4.731c-2.618 0-4.731-2.113-4.731-4.731s2.113-4.731 4.731-4.731zM15.771 27.355c-3.943 0-7.428-2.019-9.463-5.078 0.047-3.139 6.309-4.858 9.463-4.858 3.138 0 9.416 1.719 9.463 4.858-2.035 3.060-5.52 5.078-9.463 5.078z"></path>
</symbol>
<symbol id="icon-redfox" viewBox="0 0 26 32">
<path d="M0 0.029v12.676l6.221-6.221-6.221-6.455z"></path>
<path d="M19.38 6.455l6.221 6.221v-12.676l-6.221 6.455z"></path>
<path d="M0.765 13.983l11.61 17.048-5.575-23.082-6.035 6.033z"></path>
<path d="M13.18 31.032l11.61-17.048-6.035-6.033-5.575 23.082z"></path>
<path d="M17.361 7.7h-9.176l4.588 19.992 4.588-19.992z"></path>
</symbol>
</defs>
</svg>
