<svg aria-hidden="true" style="position: absolute; width: 0; height: 0; overflow: hidden;" version="1.1" xmlns="http://www.w3.org/2000/svg" xmlns:xlink="http://www.w3.org/1999/xlink">
<defs>
<symbol id="icon-feature-tile-01" viewBox="0 0 32 32">
<path stroke-linejoin="miter" stroke-linecap="square" stroke-miterlimit="4" stroke-width="1" d="M15 19.657l-2.090 1.099 0.59-3.441-2.5-2.437 3.455-0.502 1.545-3.13 1.545 3.13 3.455 0.502-1.5 1.462"></path>
</symbol>
<symbol id="icon-feature-tile-02" viewBox="0 0 32 32">
<path stroke-linejoin="miter" stroke-linecap="square" stroke-miterlimit="4" stroke-width="1" d="M10.5 11.5h11v9h-11z"></path>
</symbol>
<symbol id="icon-feature-tile-03" viewBox="0 0 32 32">
<path stroke-linejoin="miter" stroke-linecap="square" stroke-miterlimit="4" stroke-width="1" d="M18.75 16c0 3.038-1.231 5.5-2.75 5.5s-2.75-2.462-2.75-5.5c0-3.038 1.231-5.5 2.75-5.5s2.75 2.462 2.75 5.5z"></path>
<path stroke-linejoin="miter" stroke-linecap="square" stroke-miterlimit="4" stroke-width="1" d="M21.5 16c0 3.038-2.462 5.5-5.5 5.5s-5.5-2.462-5.5-5.5c0-3.038 2.462-5.5 5.5-5.5s5.5 2.462 5.5 5.5z"></path>
</symbol>
<symbol id="icon-feature-tile-04" viewBox="0 0 32 32">
<path stroke-linejoin="miter" stroke-linecap="square" stroke-miterlimit="4" stroke-width="1" d="M19.5 21.5v-3.15c0.907-0.811 1.481-1.979 1.5-3.281l0-0.003c0-0.006 0-0.012 0-0.019 0-2.449-1.935-4.447-4.36-4.546l-0.009-0c-0.039-0.001-0.085-0.002-0.131-0.002-2.485 0-4.5 2.015-4.5 4.5 0 0.001 0 0.001 0 0.002v-0 0.5l-1 2.5 1 0.5v2c0 0.552 0.448 1 1 1v0h2c1.381 0 2.5-1.119 2.5-2.5v0-2.5"></path>
<path stroke-linejoin="miter" stroke-linecap="square" stroke-miterlimit="4" stroke-width="1" d="M19 15c0 0.828-0.672 1.5-1.5 1.5s-1.5-0.672-1.5-1.5c0-0.828 0.672-1.5 1.5-1.5s1.5 0.672 1.5 1.5z"></path>
</symbol>
<symbol id="icon-feature-tile-05" viewBox="0 0 32 32">
<path stroke-linejoin="miter" stroke-linecap="square" stroke-miterlimit="4" stroke-width="1" d="M14.5 21h5.114c0 0 0 0 0 0 0.447 0 0.826-0.294 0.954-0.699l0.002-0.007 1.384-4.5c0.028-0.088 0.044-0.189 0.044-0.294 0-0.552-0.447-1-0.999-1h-3.5v-2c0-1.187-0.625-1.747-1.382-1.93-0.035-0.008-0.074-0.013-0.115-0.013-0.278 0-0.503 0.225-0.503 0.503v0 1.941l-2.5 3"></path>
<path stroke-linejoin="miter" stroke-linecap="square" stroke-miterlimit="4" stroke-width="1" d="M11 15h2v6h-2z"></path>
</symbol>
<symbol id="icon-feature-tile-06" viewBox="0 0 32 32">
<path stroke-linejoin="miter" stroke-linecap="square" stroke-miterlimit="4" stroke-width="1" d="M20.5 13.5c0 0.828-0.672 1.5-1.5 1.5s-1.5-0.672-1.5-1.5c0-0.828 0.672-1.5 1.5-1.5s1.5 0.672 1.5 1.5z"></path>
<path stroke-linejoin="miter" stroke-linecap="square" stroke-miterlimit="4" stroke-width="1" d="M14.93 11.59c-2.53 0.404-4.43 2.21-4.43 4.41 0 2.5 2.45 4.5 5.5 4.5 0.032 0.001 0.070 0.001 0.107 0.001 0.514 0 1.010-0.073 1.48-0.21l-0.037 0.009 2.95 1.2-0.3-2.6c0.415-0.411 0.751-0.9 0.984-1.444l0.011-0.030"></path>
</symbol>
<symbol id="icon-illustration-section-01" viewBox="0 0 228 32">
<path d="M148.476-25.009l1.701-0.943 15.574 9.338c1.039 0.632 2.138 1.313 3.209 2.043 0.151 0.103 0.301 0.206 0.451 0.311 0.668 0.474 1.241 0.923 1.793 1.397l-0.032-0.027c0.572 0.49 1.091 0.98 1.587 1.492l0.006 0.006c0.994 1.034 1.955 2.214 2.936 3.606 0.602 0.854 1.2 1.743 1.784 2.62l0.436 0.655c0.166 0.249 0.331 0.499 0.497 0.748l0.16 0.238c0.956 1.417 1.847 2.586 2.719 3.567 1.029 1.158 2.147 2.111 3.326 2.834l0.124 0.075c1.225 0.732 2.639 1.292 4.205 1.664 1.372 0.326 2.878 0.561 4.74 0.739l1.627 0.155c1.078 0.103 2.173 0.213 3.238 0.345 1.703 0.211 3.208 0.507 4.602 0.905 1.398 0.401 2.794 0.952 4.15 1.637 1.188 0.605 2.351 1.267 3.445 1.907l0.414 0.243c1.145 0.675 2.287 1.352 3.427 2.028l11.923 7.129-0.034 1.94-12.407-7.42c-0.544-0.323-1.088-0.646-1.633-0.968l-2.436-1.439c-1.289-0.754-2.411-1.382-3.594-1.956-1.375-0.662-2.814-1.172-4.276-1.515-1.413-0.331-2.968-0.564-4.755-0.713-0.81-0.067-1.635-0.125-2.45-0.179l-2.513-0.167c-0.387-0.026-0.619-0.044-0.851-0.064l0.178 0.013c-1.544-0.13-2.887-0.325-4.089-0.592-1.514-0.336-2.881-0.857-4.064-1.549l-0.116-0.069c-1.196-0.719-2.325-1.689-3.356-2.884-0.916-1.062-1.834-2.328-2.806-3.87 0.375 0.652 0.164 0.319-0.046-0.014l-0.593-1.007-0.73-1.171c-0.414-0.663-0.836-1.334-1.258-1.987-0.965-1.493-1.894-2.745-2.839-3.829-0.98-1.123-2.092-2.146-3.304-3.041-1.2-0.879-2.466-1.67-3.655-2.394-0.908-0.552-1.815-1.1-2.721-1.647l-0.989-0.597-12.703-7.597zM152.103-27.021l10.92 6.531c0.925 0.557 1.851 1.116 2.779 1.677l0.928 0.562c1.112 0.675 2.418 1.479 3.678 2.327 1.249 0.845 2.407 1.764 3.441 2.732 1.051 0.987 2.087 2.12 3.080 3.369 0.829 1.042 1.645 2.146 2.439 3.232l0.412 0.564c1.088 1.489 2.032 2.65 2.972 3.65 1.048 1.117 2.173 2.047 3.348 2.767l0.135 0.082c1.224 0.732 2.626 1.311 4.167 1.721 1.327 0.354 2.803 0.638 4.645 0.895l0.669 0.093c1.344 0.189 2.716 0.388 4.057 0.634 1.581 0.289 3.082 0.674 4.459 1.144 1.371 0.47 2.703 1.051 4.072 1.775 1.347 0.716 2.64 1.467 3.838 2.173l1.010 0.597c0.538 0.318 1.076 0.637 1.613 0.955l1.030 0.611 10.762 6.436-0.034 1.94-10.307-6.165c-0.384-0.23-0.767-0.459-1.152-0.689-0.839-0.498-1.678-0.996-2.519-1.493l-1.677-0.989c-1.096-0.641-2.262-1.305-3.456-1.913-1.368-0.691-2.778-1.248-4.19-1.653-1.405-0.401-2.921-0.7-4.636-0.912-1.201-0.149-2.438-0.27-3.646-0.384l-1.225-0.116c-1.852-0.177-3.348-0.411-4.71-0.734-1.5-0.357-2.859-0.887-4.040-1.579l-0.122-0.072c-1.197-0.719-2.333-1.679-3.376-2.853-0.916-1.031-1.852-2.268-2.86-3.781l-0.249-0.374-0.248-0.374c-0.722-1.087-1.469-2.21-2.223-3.28-0.988-1.402-1.956-2.59-2.958-3.633-0.479-0.495-0.974-0.963-1.489-1.409l-0.029-0.025c-0.555-0.482-1.164-0.963-1.796-1.413l-0.074-0.050c-0.017-0.017-0.166-0.121-0.316-0.224l-0.142-0.092c-1.080-0.736-2.177-1.415-3.212-2.045l-0.149-0.090c3.301 1.865 2.752 1.529 2.203 1.193l-3.884-2.21-1.881-1.135-11.754-7.029 1.701-0.943zM154.031-28.089l9.971 5.963c0.925 0.557 1.852 1.115 2.78 1.676l1.27 0.769c0.97 0.589 2.166 1.326 3.352 2.095 0.718 0.469 1.39 0.939 2.027 1.418l0.254 0.192 0.062 0.048c0.405 0.312 0.797 0.628 1.177 0.95 1.093 0.929 2.18 1.98 3.229 3.124 0.201 0.219 0.44 0.484 0.676 0.75l0.054 0.062 0.182 0.208c0.547 0.626 1.102 1.283 1.7 2.004l0.575 0.694c1.093 1.315 2.028 2.348 2.927 3.235 0.167 0.165 0.34 0.329 0.515 0.49l0.015 0.013 0.134 0.122c0.062 0.056 0.123 0.113 0.185 0.168l0.102 0.088c0.787 0.686 1.6 1.288 2.429 1.796l0.148 0.090c1.222 0.73 2.606 1.336 4.114 1.8 0.237 0.073 0.481 0.145 0.732 0.216l0.199 0.056c1.005 0.277 2.127 0.54 3.452 0.808l0.133 0.027c1.467 0.294 3.034 0.62 4.555 1.009 0.189 0.049 0.377 0.099 0.565 0.15 1.31 0.358 2.569 0.774 3.749 1.241 1.312 0.522 2.62 1.144 4 1.902 0.721 0.399 1.444 0.81 2.156 1.218l1.677 0.965 13.467 8.054-0.034 1.94-11.684-6.981c-0.537-0.319-1.075-0.637-1.614-0.956-0.336-0.199-0.672-0.399-1.009-0.597l-0.403-0.237c-1.085-0.637-2.243-1.303-3.443-1.941-1.379-0.73-2.721-1.316-4.104-1.789-1.388-0.473-2.899-0.861-4.491-1.152-1.457-0.267-2.949-0.479-4.401-0.682l-0.334-0.047c-1.833-0.256-3.301-0.538-4.619-0.889-1.521-0.405-2.903-0.976-4.109-1.697l-0.028-0.017c-1.195-0.718-2.341-1.658-3.406-2.793-0.887-0.946-1.78-2.035-2.796-3.415l-0.165-0.225-0.397-0.544c-0.798-1.091-1.618-2.2-2.452-3.249-1-1.258-2.044-2.399-3.102-3.393-1.043-0.976-2.21-1.902-3.469-2.754-1.252-0.843-2.512-1.619-3.687-2.333-0.906-0.55-1.812-1.097-2.717-1.642l-0.995-0.599-10.805-6.462 1.701-0.943zM154.258-28.215l1.701-0.943 13.271 7.948 1.187 0.733c1.788 1.069 2.434 1.476 3.077 1.885l-1.098-0.653c1.345 0.853 2.519 1.671 3.59 2.499 1.121 0.868 2.254 1.844 3.366 2.901l0.188 0.18c1.031 0.99 2.015 2.001 2.8 2.82l0.493 0.515c0.829 0.862 1.868 1.913 2.959 2.894 0.183 0.165 0.392 0.347 0.604 0.525l0.038 0.031c0.907 0.763 1.836 1.438 2.77 2.010l0.168 0.102c1.215 0.726 2.578 1.364 4.052 1.894 1.389 0.5 2.813 0.919 3.968 1.243l0.748 0.208c1.613 0.45 2.866 0.827 4.025 1.209 1.461 0.483 2.868 1.027 4.181 1.615 1.245 0.561 2.533 1.219 3.938 2.012 0.662 0.377 1.33 0.762 1.987 1.142l1.441 0.835c0.131 0.076 0.263 0.152 0.394 0.228l12.526 7.492-0.034 1.94-13.357-7.989-1.401-0.806c-0.803-0.462-1.622-0.929-2.438-1.38-1.39-0.764-2.707-1.39-4.025-1.914-0.17-0.067-0.341-0.133-0.514-0.198-1.209-0.455-2.494-0.858-3.827-1.201-1.018-0.26-2.054-0.492-3.068-0.704-0.338-0.071-0.674-0.14-1.005-0.207l-0.902-0.183c-1.288-0.266-2.381-0.527-3.358-0.803-0.249-0.070-0.492-0.142-0.728-0.215-1.493-0.46-2.86-1.058-4.065-1.778l-0.029-0.017c-1.194-0.718-2.357-1.631-3.456-2.716l-0.131-0.13c-0.876-0.876-1.794-1.897-2.868-3.194l-0.293-0.354c-1.015-1.225-1.895-2.263-2.815-3.267-1.055-1.151-2.148-2.208-3.249-3.143-0.141-0.121-0.327-0.276-0.515-0.429l-0.057-0.045-0.25-0.2c-0.115-0.094-0.3-0.238-0.487-0.38l-0.082-0.060c-0.675-0.511-1.387-1.012-2.152-1.511l-0.211-0.137c-1.267-0.817-2.523-1.584-3.489-2.169-1.238-0.75-2.475-1.495-3.712-2.24l-9.856-5.895zM157.886-30.226l13.341 8.003c0.72 0.441 1.44 0.882 2.159 1.327l0.249 0.155c1.313 0.821 2.398 1.541 3.398 2.255 1.16 0.828 2.332 1.74 3.484 2.71l0.196 0.166c1.108 0.94 2.173 1.896 3.014 2.658l0.435 0.394c0.867 0.785 1.956 1.751 3.1 2.68 1.156 0.939 2.284 1.741 3.442 2.446l0.195 0.118c1.226 0.733 2.53 1.385 3.986 1.993l0.238 0.099c1.309 0.54 2.627 1.022 3.692 1.401l0.764 0.272c1.094 0.391 2.427 0.878 3.739 1.401 1.412 0.563 2.78 1.171 4.067 1.809l0.209 0.104c1.117 0.56 2.293 1.199 3.679 1.998 0.491 0.284 0.982 0.57 1.472 0.856l0.735 0.429c0.536 0.313 1.072 0.626 1.607 0.937l11.588 6.93-0.034 1.939-12.993-7.76-1.57-0.91c-0.557-0.322-1.12-0.647-1.68-0.965-1.411-0.797-2.705-1.458-3.956-2.022-1.32-0.591-2.734-1.137-4.203-1.623l-0.243-0.080c-1.378-0.449-2.751-0.843-3.857-1.151l-0.693-0.193c-1.153-0.324-2.569-0.741-3.941-1.235-1.41-0.507-2.717-1.113-3.888-1.801l-0.166-0.098c-1.188-0.714-2.367-1.594-3.505-2.617-1.091-0.982-2.125-2.028-2.948-2.885l-0.627-0.654c-0.811-0.845-1.814-1.871-2.86-2.866-1.118-1.063-2.257-2.043-3.383-2.915-1.073-0.831-2.253-1.652-3.607-2.511-0.766-0.482-1.545-0.964-2.307-1.434l-0.325-0.201c-0.357-0.221-0.715-0.441-1.073-0.663l-12.627-7.552 1.701-0.942zM159.813-31.294l14.576 8.717c-0.463-0.273-0.168-0.081 0.127 0.111l0.777 0.472 0.453 0.29c0.762 0.488 1.55 0.992 2.317 1.503 1.104 0.736 2.232 1.536 3.356 2.382l0.225 0.17c1.070 0.811 2.126 1.649 2.999 2.352l0.877 0.707c0.894 0.718 1.992 1.588 3.117 2.424 1.254 0.933 2.462 1.745 3.684 2.475 1.226 0.733 2.511 1.413 3.93 2.078l0.232 0.108c1.158 0.538 2.319 1.041 3.296 1.456l1.113 0.471c1.394 0.591 2.503 1.077 3.541 1.553 1.381 0.635 2.718 1.297 3.973 1.97 0.61 0.327 1.222 0.665 1.824 1.001l1.322 0.737c0.241 0.134 0.482 0.268 0.722 0.4l14.435 8.633-0.034 1.939-11.476-6.864-1.578-0.92c-0.497-0.29-0.993-0.58-1.491-0.869l-0.747-0.433-0.258-0.148c-1.365-0.782-2.528-1.408-3.641-1.96-1.288-0.638-2.662-1.249-4.084-1.817l-0.235-0.093c-1.255-0.495-2.499-0.949-3.526-1.316l-1.044-0.372c-1.072-0.384-2.358-0.862-3.624-1.39-1.367-0.57-2.648-1.207-3.812-1.892l-0.194-0.116c-1.151-0.692-2.272-1.479-3.418-2.4l-0.143-0.116c-0.904-0.734-1.85-1.551-3.028-2.615l-0.82-0.743c-0.843-0.761-1.861-1.668-2.894-2.537-1.16-0.977-2.337-1.892-3.498-2.721l-0.189-0.134c-1.014-0.716-2.123-1.446-3.47-2.283 1.31 0.745 0.84 0.452 0.369 0.16l-1.81-1.046-0.72-0.441c-0.518-0.317-1.036-0.634-1.553-0.953l-11.678-6.985 1.701-0.943zM226.444 23.841l-14.232-8.507c-0.642-0.381-1.285-0.761-1.928-1.141l-1.214-0.716c-1.089-0.638-2.339-1.349-3.651-1.956-1.37-0.627-2.835-1.095-4.354-1.389-1.422-0.276-3.005-0.463-4.838-0.571-0.575-0.034-1.158-0.065-1.735-0.094l-1.421-0.071c-0.616-0.031-1.239-0.064-1.852-0.101-1.822-0.11-3.385-0.312-4.778-0.618-1.558-0.342-2.959-0.88-4.162-1.6l-0.024-0.015c-1.195-0.718-2.322-1.689-3.349-2.887-0.929-1.082-1.841-2.356-2.79-3.895-0.401-0.65-0.803-1.316-1.196-1.968l-0.588-0.976c-0.766-1.319-1.030-1.747-1.295-2.174l0.498 0.862c-0.952-1.553-1.853-2.851-2.754-3.967-0.968-1.199-2.054-2.265-3.23-3.168-1.189-0.909-2.452-1.702-3.639-2.424 3.773 2.123 2.956 1.623 2.139 1.123l-4.642-2.637-1.208-0.728-13.652-8.165 1.7-0.942 12.898 7.714c1.206 0.727 2.416 1.457 3.626 2.192l0.376 0.23c1.072 0.657 2.193 1.37 3.262 2.153 1.221 0.906 2.292 1.894 3.248 2.985l0.020 0.023c0.937 1.073 1.859 2.317 2.82 3.803 0.424 0.656 0.849 1.331 1.265 1.998l0.414 0.663c0.315 0.506 0.63 1.012 0.948 1.515l0.158 0.249c0.92 1.44 1.794 2.635 2.668 3.648 1.018 1.181 2.131 2.145 3.311 2.869l0.121 0.073c1.226 0.732 2.647 1.281 4.226 1.632 1.212 0.269 2.565 0.465 4.119 0.596 0.222 0.019 0.448 0.036 0.678 0.052l0.972 0.066 1.545 0.101c0.812 0.054 1.635 0.111 2.441 0.178 1.775 0.148 3.32 0.379 4.722 0.707 1.448 0.34 2.871 0.844 4.23 1.499 1.216 0.589 2.374 1.241 3.722 2.032l0.547 0.322 1.925 1.139c0.496 0.294 0.985 0.585 1.461 0.867l12.507 7.481-0.034 1.937zM226.43 24.844l-1.050 0.582-13.776-8.236c-0.724-0.43-1.448-0.859-2.173-1.289l-1.089-0.643c-1.149-0.677-2.495-1.452-3.916-2.080-1.349-0.591-2.834-1.026-4.413-1.292-1.418-0.239-3.015-0.401-4.882-0.494-0.35-0.017-0.7-0.034-1.050-0.050l-1.38-0.064c-0.86-0.040-1.731-0.084-2.584-0.139-1.799-0.115-3.356-0.327-4.761-0.646-1.507-0.344-2.87-0.868-4.054-1.56l-0.123-0.073c-1.196-0.718-2.326-1.683-3.361-2.869-0.943-1.080-1.861-2.345-2.808-3.866-0.616-0.99-1.228-2.017-1.821-3.010-0.25-0.42-0.5-0.839-0.751-1.256-0.955-1.589-1.841-2.911-2.708-4.041-0.969-1.261-2.036-2.361-3.171-3.268-1.165-0.924-2.431-1.723-3.627-2.449 3.697 2.077 2.847 1.556 1.997 1.037l-4.601-2.611-1.107-0.667-13.381-8.003 0.025-1.42 0.454-0.252 13.864 8.292c1.201 0.724 2.404 1.45 3.609 2.181 1.186 0.721 2.445 1.512 3.619 2.41 1.161 0.892 2.235 1.946 3.192 3.132 0.894 1.108 1.79 2.397 2.737 3.943 0.265 0.432 0.532 0.873 0.795 1.31l0.785 1.303c0.784 1.342 1.114 1.879 1.448 2.413l-0.448-0.769c0.957 1.552 1.877 2.835 2.811 3.923 1.017 1.185 2.13 2.152 3.311 2.877l0.118 0.071c1.226 0.732 2.648 1.28 4.229 1.626 1.404 0.308 2.978 0.512 4.813 0.623 0.735 0.044 1.485 0.083 2.218 0.119l1.053 0.053c0.577 0.029 1.162 0.060 1.737 0.094 1.824 0.108 3.396 0.293 4.808 0.567 1.504 0.292 2.952 0.754 4.303 1.373 1.27 0.587 2.469 1.261 3.88 2.091 1.262 0.744 2.521 1.491 3.778 2.237l13.462 8.051-0.013 0.74zM223.45 26.493l-12.3-7.356c5.279 2.902 4.043 2.159 2.805 1.417l-6.592-3.663-0.281-0.166c-1.131-0.665-2.341-1.345-3.644-1.9-1.338-0.565-2.835-0.98-4.448-1.234-1.421-0.223-2.975-0.374-4.892-0.475l-1.641-0.085c-1.113-0.059-2.244-0.123-3.347-0.209-1.771-0.138-3.314-0.371-4.719-0.715-1.531-0.374-2.921-0.93-4.133-1.654l-0.027-0.016c-1.201-0.721-2.338-1.674-3.381-2.833-0.963-1.070-1.894-2.312-2.848-3.797-0.689-1.074-1.37-2.194-2.032-3.289l-0.564-0.934-0.144-0.237c-0.883-1.448-1.665-2.623-2.44-3.667l-0.113-0.152c-0.973-1.297-2.028-2.416-3.136-3.325-1.078-0.883-2.225-1.625-3.617-2.468 5.406 3.030 4.194 2.29 2.98 1.55l-6.693-3.789-12.44-7.44 0.034-1.94 15.175 9.085c5.21 2.987 5.8 3.349 6.389 3.711l-4.583-2.619 0.311 0.19c1.095 0.671 2.237 1.406 3.292 2.243 1.121 0.895 2.175 1.982 3.133 3.229l0.144 0.189c0.817 1.081 1.652 2.337 2.55 3.831 0.166 0.276 0.331 0.553 0.497 0.83l0.248 0.416c0.595 0.997 1.21 2.029 1.829 3.023 0.954 1.532 1.879 2.806 2.829 3.894 1.020 1.17 2.135 2.129 3.315 2.854l0.124 0.075c1.226 0.733 2.645 1.286 4.217 1.645 1.414 0.322 2.983 0.535 4.796 0.651 0.854 0.055 1.725 0.098 2.584 0.139l0.854 0.040c0.527 0.024 1.054 0.048 1.58 0.075l0.307 0.016c1.726 0.094 3.217 0.25 4.549 0.474 1.561 0.263 3.029 0.693 4.36 1.277 1.313 0.58 2.563 1.288 3.653 1.927l0.239 0.141c5.208 2.918 5.896 3.331 6.584 3.745l-4.477-2.498 1.68 0.997 13.137 7.857-1.701 0.943zM221.524 27.563l-15.516-9.272c-1.080-0.623-2.28-1.296-3.553-1.825-1.327-0.551-2.826-0.962-4.456-1.22l-0.196-0.031c-1.316-0.201-2.768-0.351-4.541-0.468l-1.070-0.070c-1.331-0.088-2.687-0.184-4.002-0.314-1.737-0.172-3.262-0.437-4.663-0.808-1.509-0.401-2.891-0.973-4.108-1.7l-0.029-0.017c-1.205-0.724-2.351-1.662-3.408-2.789-0.987-1.053-1.937-2.264-2.905-3.704-0.762-1.134-1.5-2.305-2.217-3.454l-0.428-0.687c-1.011-1.624-1.874-2.902-2.716-4.021-0.982-1.305-2.034-2.429-3.126-3.339-1.177-0.98-2.482-1.792-3.614-2.476-1.239-0.749-2.478-1.494-3.714-2.237l-11.5-6.878 0.034-1.939 12.33 7.374c1.235 0.743 2.473 1.489 3.712 2.239l0.265 0.161c1.265 0.773 2.328 1.471 3.326 2.289 1.095 0.9 2.137 2.005 3.099 3.286l0.060 0.081 0.060 0.081c0.811 1.094 1.629 2.331 2.563 3.874l0.345 0.57c1.503 2.614 1.73 2.984 1.957 3.353l-1.271-2.22c0.328 0.54 0.66 1.083 0.995 1.619 0.083 0.133 0.167 0.263 0.25 0.395l0.215 0.341 0.108 0.17c0.96 1.495 1.898 2.746 2.87 3.826 1.028 1.142 2.147 2.087 3.328 2.812l0.131 0.080c1.23 0.735 2.641 1.3 4.194 1.679 1.417 0.346 2.972 0.582 4.755 0.72 1.104 0.086 2.236 0.15 3.349 0.209l1.645 0.086c1.904 0.1 3.451 0.25 4.868 0.473 1.595 0.251 3.074 0.661 4.396 1.219 1.398 0.595 2.693 1.34 3.899 2.052 1.265 0.747 2.527 1.497 3.787 2.247l12.188 7.289-1.7 0.943zM219.595 28.63l-14.564-8.704c-1.079-0.626-2.278-1.302-3.549-1.832-1.319-0.55-2.812-0.97-4.439-1.245l-0.183-0.031c-1.255-0.207-2.661-0.376-4.388-0.528l-0.255-0.022c-0.574-0.049-1.143-0.098-1.707-0.15l-0.3-0.028c-0.25-0.023-0.499-0.047-0.747-0.072-0.816-0.075-1.199-0.116-1.581-0.16l0.467 0.043c-0.183-0.020-0.365-0.041-0.546-0.063l-0.457-0.055c-1.705-0.213-3.209-0.513-4.599-0.915-1.487-0.43-2.86-1.019-4.081-1.749-1.222-0.731-2.389-1.659-3.467-2.76-1.009-1.030-1.98-2.206-2.968-3.598 0.010 0.024-0.123-0.163-0.255-0.351l-0.149-0.224c-0.661-0.951-1.311-1.933-1.935-2.887l-0.522-0.8c-0.699-1.067-1.322-1.976-1.91-2.783l-0.063-0.086c-0.288-0.396-0.497-0.672-0.709-0.945l0.072 0.097c-0.998-1.295-2.055-2.409-3.141-3.312-1.116-0.927-2.296-1.671-3.612-2.48l-14.281-8.541 0.034-1.939 11.391 6.813c1.234 0.742 2.472 1.487 3.712 2.236l0.235 0.142c1.068 0.649 2.267 1.411 3.351 2.314 1.078 0.898 2.118 2.009 3.091 3.301l0.117 0.156c0.799 1.073 1.625 2.302 2.588 3.849l0.43 0.69c0.72 1.155 1.461 2.329 2.22 3.458 0.975 1.45 1.932 2.671 2.927 3.732 1.038 1.107 2.162 2.035 3.345 2.76l0.141 0.085c1.234 0.738 2.636 1.318 4.165 1.724 1.412 0.375 2.948 0.641 4.698 0.815 1.455 0.144 2.957 0.246 4.422 0.342l0.919 0.061c1.734 0.121 3.158 0.274 4.455 0.479 1.611 0.255 3.093 0.66 4.405 1.205 1.412 0.587 2.74 1.356 3.909 2.033l15.017 8.981-1.701 0.942zM217.67 29.7l-13.747-8.215c-1.044-0.608-2.196-1.255-3.406-1.774-1.325-0.569-2.764-0.996-4.4-1.308l-0.173-0.033c-1.277-0.237-2.668-0.436-4.465-0.639l-0.639-0.072c-1.34-0.152-2.837-0.331-4.28-0.553-1.672-0.258-3.155-0.594-4.532-1.027-1.463-0.459-2.827-1.064-4.055-1.797l-0.031-0.018-0.151-0.094c-0.093-0.057-0.187-0.115-0.28-0.174-0.866-0.557-1.706-1.203-2.505-1.929-0.040-0.037-0.081-0.072-0.121-0.109l-0.027-0.026c-0.139-0.129-0.264-0.248-0.387-0.368l0.004 0.004c-1.031-1.005-2.024-2.146-3.036-3.487l-0.169-0.225c-0.814-1.088-1.606-2.216-2.522-3.543l-0.235-0.34c-1.036-1.497-1.868-2.626-2.683-3.641-1.034-1.287-2.074-2.349-3.179-3.247-1.131-0.918-2.359-1.687-3.623-2.459l-13.34-7.978 0.034-1.94 14.6 8.74c1.136 0.704 2.172 1.379 3.154 2.195 1.074 0.892 2.119 1.994 3.107 3.276 0.213 0.271 0.495 0.647 0.772 1.028l0.089 0.128 0.099 0.138c0.529 0.741 1.092 1.568 1.715 2.522l0.399 0.612c0.653 0.999 1.337 2.034 2.040 3.043 0.259 0.379 0.375 0.542 0.491 0.704l-0.139-0.204c0.995 1.401 1.973 2.586 2.991 3.625 1.049 1.070 2.18 1.98 3.365 2.706l0.147 0.089c1.238 0.74 2.629 1.336 4.134 1.771 1.401 0.406 2.916 0.707 4.633 0.922l0.184 0.022c0.063 0.017 0.503 0.068 0.945 0.116l0.339 0.030c0.219 0.023 0.439 0.046 0.659 0.067l0.366 0.036 0.69 0.065c0.421 0.038 0.844 0.076 1.27 0.113l0.681 0.059c1.804 0.159 3.256 0.336 4.553 0.556 1.61 0.273 3.087 0.687 4.391 1.231 1.413 0.59 2.737 1.362 3.905 2.043l14.069 8.414-1.7 0.942zM213.814 31.836l-11.722-7.007c0.553 0.296 0.305 0.148 0.057 0.002l-0.816-0.447-0.301-0.175-0.176-0.102-0.299-0.171c-0.642-0.366-1.276-0.716-1.927-1.053l-0.007-0.004c-1.404-0.606-2.849-1.101-4.296-1.47l-0.25-0.063c-1.146-0.285-2.4-0.548-3.991-0.837l-1.058-0.19c-0.172-0.031-0.341-0.062-0.509-0.092l-0.418-0.077-0.884-0.167-0.366-0.071-0.218-0.043-0.369-0.074-0.2-0.041-0.394-0.081c-0.106-0.022-0.212-0.045-0.318-0.068-0.082-0.018-0.165-0.035-0.247-0.053-1.61-0.352-3.049-0.761-4.401-1.249-0.356-0.129-0.707-0.265-1.053-0.408-1.026-0.425-2.006-0.915-2.924-1.462l-0.031-0.018c-1.11-0.669-2.194-1.452-3.221-2.338l-0.128-0.111c-0.068-0.059-0.136-0.118-0.203-0.178-1.069-0.957-2.106-2.026-3.169-3.267-0.948-1.106-1.886-2.276-2.766-3.388l-0.339-0.429c-1.1-1.388-1.981-2.435-2.837-3.375-0.997-1.094-2.099-2.129-3.281-3.081-1.103-0.768-2.253-1.481-3.284-2.107l-0.418-0.253-11.44-6.842 0.034-1.94 12.666 7.578c1.070 0.653 2.189 1.353 3.268 2.131 1.153 0.984 2.191 2.022 3.143 3.136l0.032 0.038 0.165 0.196c0.774 0.922 1.583 1.959 2.58 3.31l0.144 0.195c0.904 1.229 1.878 2.538 2.874 3.776 1.043 1.298 2.065 2.41 3.124 3.399 1.108 1.035 2.293 1.934 3.525 2.674l0.040 0.024c1.245 0.744 2.615 1.371 4.073 1.864 1.375 0.465 2.846 0.84 4.497 1.147 1.424 0.264 2.856 0.483 4.552 0.726l0.17 0.024c1.914 0.274 3.354 0.524 4.668 0.812 1.676 0.372 3.123 0.831 4.513 1.401l-0.182-0.066c1.295 0.647 2.559 1.382 3.847 2.142l12.171 7.279-1.7 0.942zM211.659 33.031l-1.7 0.942-9.435-5.643c-1.151-0.689-2.282-1.362-3.432-2.011l-0.389-0.218c-1.316-0.651-2.699-1.247-4.114-1.771-1.309-0.42-2.692-0.819-4.219-1.217l-0.924-0.24c-1.227-0.319-2.479-0.649-3.715-1.004-1.556-0.448-2.955-0.926-4.275-1.463-1.336-0.544-2.616-1.174-3.808-1.876l-0.21-0.125c-1.218-0.732-2.412-1.58-3.55-2.52-1.098-0.907-2.177-1.907-3.299-3.057l-0.21-0.216c-0.873-0.9-1.716-1.806-2.688-2.857l-0.236-0.255c-1.118-1.211-2.155-2.278-3.172-3.266-1.116-0.992-2.277-1.925-3.456-2.774-1.152-0.746-2.34-1.466-3.471-2.143l-9.823-5.874 0.034-1.939 10.694 6.396c1.263 0.758 2.341 1.421 3.401 2.131 1.145 0.869 2.275 1.838 3.353 2.876l0.199 0.213c0.864 0.928 1.763 1.943 2.74 3.090l0.658 0.773c0.888 1.040 1.681 1.951 2.5 2.848 1.101 1.204 2.165 2.245 3.254 3.181 0.518 0.448 1.090 0.903 1.681 1.335l0.076 0.053c0.098 0.071 0.197 0.14 0.296 0.21l0.146 0.103c0.105 0.073 0.21 0.143 0.315 0.213l0.143 0.097 0.104 0.067 0.104 0.067c0.091 0.059 0.181 0.117 0.272 0.175l0.049 0.030c0.125 0.078 0.25 0.156 0.375 0.231l0.051 0.030c1.25 0.746 2.602 1.401 4.018 1.945 1.347 0.518 2.774 0.964 4.364 1.364 1.431 0.36 2.913 0.687 4.224 0.97l0.324 0.070c1.662 0.357 3.137 0.711 4.504 1.079 1.444 0.473 2.843 1.022 4.158 1.634 1.24 0.67 2.45 1.384 3.589 2.066l10.5 6.28zM207.805 35.166l-1.701 0.943-8.666-5.183c0.93 0.486 0.058-0.038-0.816-0.559l-1.854-1.023c-0.971-0.557-2.274-1.224-3.604-1.843l-0.369-0.154c-1.319-0.549-2.692-1.080-4.197-1.623l-1.457-0.508c-0.932-0.326-1.877-0.659-2.806-0.996-1.518-0.552-2.876-1.1-4.151-1.676-1.366-0.618-2.685-1.305-3.922-2.044-1.411-0.851-2.603-1.669-3.745-2.549l0.092 0.068c-1.111-0.849-2.233-1.781-3.428-2.849-0.901-0.804-1.806-1.633-2.688-2.443l-0.632-0.58c-1.174-1.056-2.28-2.007-3.383-2.911-0.997-0.772-2.167-1.608-3.368-2.401l-0.223-0.138-0.335-0.205c-1.173-0.716-2.349-1.419-3.396-2.045l-7.701-4.605 0.034-1.94 8.537 5.106c0.885 0.529 1.755 1.052 2.614 1.579l0.327 0.202 0.326 0.203c0.147 0.091 0.294 0.182 0.44 0.274 1.345 0.925 2.486 1.791 3.588 2.702l-0.084-0.068c1.071 0.952 2.171 1.986 3.268 3.075l1.030 1.022c0.724 0.718 1.463 1.446 2.202 2.153l0.115 0.109 0.115 0.108c0.967 0.916 1.897 1.736 2.827 2.489l0.14 0.113c0.061 0.049 0.122 0.099 0.183 0.147 1.123 0.893 2.291 1.712 3.483 2.431l0.171 0.102c1.244 0.744 2.58 1.423 3.968 2.020 1.302 0.559 2.687 1.075 4.232 1.577 0.307 0.1 0.616 0.198 0.926 0.296 0.166 0.052 0.332 0.104 0.497 0.156 0.138 0.043 0.277 0.087 0.415 0.13 0.381 0.118 0.762 0.235 1.14 0.351l1.378 0.421c1.49 0.456 2.933 0.942 4.286 1.442 1.678 0.695 2.997 1.324 4.284 2.008l-0.27-0.131c1.118 0.642 2.213 1.292 3.401 2.002l8.773 5.247zM145.496-2.359l0.034-1.939 9.469 5.663c1.189 0.711 2.455 1.473 3.701 2.28 1.168 0.841 2.323 1.769 3.43 2.753 1.011 0.981 2.044 2.046 3.16 3.253l0.511 0.553c0.825 0.892 1.724 1.855 2.627 2.78 1.128 1.156 2.213 2.162 3.316 3.074 1.146 0.947 2.349 1.801 3.576 2.538l0.057 0.034c1.245 0.744 2.589 1.411 3.993 1.983 1.328 0.54 2.734 1.021 4.298 1.471 1.499 0.43 3.068 0.837 4.453 1.196l0.354 0.092c1.466 0.385 2.792 0.769 4.040 1.169 1.404 0.521 2.779 1.113 4.083 1.758 1.28 0.714 2.532 1.459 3.81 2.224l9.325 5.576-1.7 0.942-9.332-5.58c-1.002-0.597-1.904-1.131-2.833-1.666l-0.131-0.075c-1.025-0.558-2.353-1.192-3.712-1.767l-0.327-0.123c-1.361-0.503-2.808-0.99-4.302-1.448l-1.42-0.434c-0.361-0.11-0.724-0.222-1.087-0.335-1.666-0.483-2.281-0.682-2.893-0.885l1.047 0.301c-1.539-0.5-2.917-1.013-4.213-1.57-1.38-0.593-2.706-1.268-3.942-2.006-1.233-0.736-2.457-1.585-3.629-2.516l-0.099-0.079-0.099-0.080c-0.945-0.761-1.89-1.588-2.873-2.516l-0.195-0.184c-0.033-0.031-0.065-0.062-0.098-0.093-0.74-0.709-1.481-1.438-2.207-2.158l-1.022-1.014c-1.1-1.092-2.203-2.129-3.28-3.086-1.025-0.85-2.173-1.721-3.359-2.542l-0.167-0.11-0.151-0.094c-1.042-0.652-2.095-1.288-3.169-1.931l-9.044-5.409zM145.607-8.695l11.746 7.027c1.028 0.623 2.174 1.334 3.266 2.094 1.167 0.94 2.26 1.967 3.25 3.053l0.113 0.125c0.796 0.879 1.624 1.866 2.643 3.149l0.599 0.757c0.826 1.042 1.699 2.126 2.582 3.155 1.071 1.25 2.114 2.325 3.19 3.288 0.058 0.052 0.118 0.103 0.177 0.155 0.084 0.073 0.167 0.147 0.251 0.219l0.032 0.027c0.943 0.803 1.93 1.521 2.946 2.142l0.161 0.098 0.052 0.030c0.926 0.552 1.915 1.046 2.953 1.476 0.186 0.086 0.537 0.225 0.892 0.357l0.171 0.055c1.358 0.491 2.807 0.902 4.429 1.257l0.123 0.027 0.443 0.094 0.191 0.040c0.135 0.028 0.271 0.056 0.407 0.084l0.363 0.073 0.3 0.059 0.356 0.069 0.364 0.069 0.336 0.063 0.557 0.103 0.567 0.103 0.983 0.176c1.702 0.308 3.017 0.588 4.225 0.896 1.43 0.365 2.863 0.855 4.258 1.457l0.213 0.112c0.089 0.047 0.178 0.093 0.266 0.14l0.124 0.067c0.378 0.194 0.495 0.258 0.612 0.323l-0.254-0.129 0.122 0.068c0.118 0.065 0.236 0.13 0.354 0.196l0.18 0.102c0.098 0.055 0.196 0.11 0.294 0.166l0.341 0.196 0.233 0.134c0.449 0.261 0.898 0.526 1.349 0.793l11.222 6.712-1.7 0.942-10.384-6.21c-1.216-0.728-2.513-1.497-3.835-2.211-1.325-0.617-2.734-1.17-4.191-1.647-1.376-0.371-2.855-0.725-4.52-1.083l-0.551-0.119c-1.295-0.28-2.65-0.582-3.989-0.919-1.579-0.397-2.998-0.841-4.338-1.356-1.407-0.54-2.747-1.189-3.984-1.928-1.232-0.734-2.44-1.609-3.58-2.59-1.085-0.933-2.143-1.967-3.234-3.163-0.93-1.019-1.829-2.061-2.679-3.058l-0.588-0.69c-1.013-1.185-1.942-2.227-2.837-3.182-1.093-1.051-2.229-2.026-3.383-2.902-1.153-0.771-2.314-1.481-3.7-2.311l-10.521-6.292 0.034-1.94zM158.913-5.179c1.258 0.768 2.48 1.533 3.598 2.441 1.093 0.889 2.123 1.94 3.146 3.213l0.108 0.135c0.776 0.975 1.578 2.066 2.565 3.492l0.515 0.746c0.863 1.246 1.625 2.322 2.415 3.369 1.019 1.35 2.019 2.499 3.058 3.512 0.222 0.216 0.447 0.424 0.675 0.627 0.055 0.049 0.11 0.1 0.165 0.148l0.103 0.088c0.683 0.588 1.393 1.12 2.123 1.588 0.113 0.073 0.227 0.143 0.342 0.213l0.131 0.081c1.243 0.743 2.623 1.355 4.103 1.819 1.388 0.436 2.882 0.774 4.565 1.034 1.321 0.204 2.685 0.371 3.934 0.514l1.116 0.126c1.817 0.207 3.214 0.41 4.5 0.655 1.619 0.308 3.043 0.731 4.354 1.294 1.403 0.602 2.727 1.378 3.893 2.062l13.119 7.846-1.7 0.942-12.684-7.582c-1.193-0.7-2.3-1.335-3.473-1.92-1.218-0.509-2.679-0.972-4.186-1.312l-0.185-0.035-0.17-0.037c-1.195-0.257-2.496-0.484-4.154-0.726l-0.987-0.142c-1.278-0.185-2.697-0.4-4.087-0.659-1.64-0.305-3.101-0.677-4.466-1.139-1.442-0.488-2.798-1.108-4.029-1.844l-0.028-0.017c-0.066-0.040-0.132-0.082-0.198-0.123l-0.16-0.099c-0.058-0.035-0.084-0.052-0.11-0.068l0.030 0.018c-0.673-0.43-1.331-0.907-1.969-1.428l-0.251-0.207c-0.042-0.035-0.083-0.072-0.125-0.108-0.267-0.228-0.5-0.437-0.728-0.65l0.013 0.012c-1.049-0.979-2.064-2.084-3.103-3.376-0.923-1.148-1.833-2.364-2.686-3.522l-0.182-0.247c-1.139-1.549-2.034-2.695-2.899-3.713-0.994-1.164-2.043-2.212-3.169-3.173l-0.039-0.032c-1.22-0.879-2.48-1.655-3.666-2.375l-12.401-7.416 0.034-1.939 13.23 7.912zM145.645-23.696l-0.025 1.422-0.002-0.001-0.043 2.456 0.001 0-0.077 4.396 0 0-0.034 1.94-0-0-0.043 2.456 0 0-0.038 2.198 0 0-0.034 1.942-0.001-0.001-0.043 2.456 0.001 0.001-0.034 1.939-0-0-0.043 2.456 9.057 5.417c2.139 1.241 2.949 1.738 3.756 2.239l-1.275-0.736c1.416 0.927 2.58 1.759 3.711 2.63l-0.14-0.103c1.098 0.899 2.201 1.848 3.372 2.901l0.302 0.277c0.986 0.905 2.006 1.841 3.020 2.747 1.199 1.072 2.325 2.007 3.441 2.86 1.108 0.846 2.252 1.63 3.405 2.333l0.269 0.162c1.244 0.743 2.571 1.435 3.945 2.056 1.28 0.579 2.643 1.129 4.167 1.683 0.93 0.338 1.875 0.671 2.808 0.997l1.456 0.508c1.501 0.542 2.87 1.071 4.182 1.618 1.69 0.771 2.987 1.434 4.254 2.143l-0.303-0.155 0.334 0.196c2.913 1.651 3.749 2.154 4.582 2.659l-2.024-1.14 8.55 5.113 20.552-11.391 0.018-1.001-0.004-0.002 0.034-1.939 0.002 0.001 0.043-2.456-0.002-0.001 0.034-1.941 0.002 0.001 0.043-2.456-0.001-0 0.034-1.939 0 0 0.043-2.456-0.001-0.001 0.038-2.197-14.549-8.702c-1.331-0.699-1.647-0.877-1.962-1.055l0.996 0.52-1.081-0.603c-0.502-0.28-1.012-0.562-1.521-0.838l-0.306-0.165c-1.259-0.674-2.6-1.339-3.986-1.976l-0.404-0.184c-0.98-0.443-2.044-0.907-3.359-1.463l-0.714-0.301c-1.075-0.455-2.399-1.027-3.703-1.639-1.412-0.662-2.691-1.338-3.91-2.067-1.167-0.695-2.314-1.464-3.503-2.342l-0.163-0.12c-1.118-0.831-2.209-1.695-3.1-2.41l-0.888-0.716c-0.875-0.703-1.932-1.543-3.004-2.355-1.202-0.911-2.41-1.772-3.592-2.56-0.577-0.384-1.164-0.764-1.744-1.136l-0.576-0.369c-1.528-0.945-1.971-1.233-2.414-1.523l1.054 0.648-14.69-8.786-14.173 7.856z"></path>
</symbol>
<symbol id="icon-illustration-section-02" viewBox="0 0 258 32">
<path d="M230.97 30.254l0.79-0.533-7.428-3.604c-4.726-2.163-5.447-2.523-6.168-2.885l3.968 1.805c-0.707-0.35-1.46-0.734-2.18-1.17-0.763-0.47-1.425-0.984-2.025-1.562l0.004 0.004c-0.588-0.565-1.174-1.227-1.793-2.022-0.359-0.461-0.719-0.94-1.067-1.403-0.537-0.73-0.74-0.997-0.944-1.263l0.325 0.442c-0.621-0.818-1.199-1.483-1.764-2.034-0.211-0.206-0.435-0.403-0.668-0.588l-0.018-0.014c-0.016-0.012-0.031-0.025-0.047-0.038-0.023-0.018-0.046-0.034-0.069-0.052-0.279-0.215-0.593-0.422-0.922-0.605l-0.038-0.020c-0.053-0.028-0.105-0.055-0.158-0.081-0.032-0.016-0.065-0.034-0.097-0.050l-0.011-0.005c-0.707-0.343-1.516-0.576-2.402-0.693-0.242-0.034-0.562-0.067-0.884-0.088l-0.044-0.002c-0.051-0.003-0.104-0.006-0.156-0.009-0.058-0.003-0.115-0.007-0.175-0.010-0.056-0.003-0.114-0.004-0.171-0.006s-0.113-0.005-0.171-0.007c-0.064-0.002-0.129-0.003-0.194-0.004-0.054-0.001-0.106-0.003-0.161-0.003-0.063-0.001-0.129-0.001-0.193-0.001-0.058 0-0.115-0.001-0.175-0.001-0.125 0-0.252 0.002-0.381 0.004-0.036 0.001-0.072 0.002-0.107 0.002-0.287 0.005-0.574 0.011-0.861 0.018-0.601 0.013-1.222 0.027-1.829 0.030h-0.014c-0.053 0-0.105-0-0.157-0-0.449-0.001-0.875-0.013-1.279-0.038-0.082-0.005-0.162-0.011-0.242-0.017-0.030-0.002-0.061-0.004-0.092-0.006-0.33-0.027-0.646-0.062-0.952-0.106-0.937-0.138-1.778-0.364-2.577-0.673l0.081 0.028c-0.747-0.285-1.458-0.609-2.296-1.007-5.358-2.388-6.093-2.747-6.828-3.107l4.589 2.033-7.253-3.519 0.066 0.948 7.048 3.419c0.672 0.323 1.343 0.646 2.017 0.967 0.715 0.341 1.485 0.7 2.271 1.017 0.793 0.317 1.603 0.558 2.406 0.714 0.801 0.155 1.659 0.247 2.626 0.282 0.756 0.027 1.537 0.033 2.292 0.038l0.47 0.004c1.045 0.008 1.933 0.068 2.714 0.183 0.906 0.133 1.736 0.38 2.468 0.735l0.014 0.007c0.726 0.354 1.429 0.85 2.088 1.472 0.572 0.54 1.166 1.197 1.815 2.008l0.319 0.399c0.459 0.574 0.933 1.168 1.408 1.731 0.619 0.734 1.216 1.348 1.825 1.879 0.287 0.251 0.602 0.501 0.929 0.736l0.038 0.026c0.276 0.197 0.565 0.383 0.859 0.561 0.065 0.039 0.129 0.081 0.195 0.119 0.723 0.418 1.472 0.797 2.172 1.143 0.7 0.345 1.399 0.688 2.096 1.029l0.102 0.050 6.997 3.395zM229.938 30.95l0.79-0.533-6.969-3.382c-0.698-0.342-1.397-0.684-2.097-1.030-0.701-0.346-1.451-0.726-2.187-1.151-0.046-0.027-0.091-0.055-0.137-0.082-0.376-0.225-0.682-0.427-0.978-0.64l0.041 0.028c-0.372-0.266-0.693-0.521-1.001-0.79l0.016 0.013c-0.619-0.54-1.224-1.164-1.851-1.906-0.477-0.565-0.952-1.16-1.411-1.735l-0.32-0.4c-0.64-0.8-1.226-1.448-1.791-1.982-0.073-0.069-0.152-0.141-0.232-0.212l-0.010-0.009c-0.552-0.487-1.132-0.882-1.728-1.179-0.023-0.011-0.045-0.024-0.068-0.035-0.708-0.343-1.514-0.583-2.394-0.713-0.77-0.113-1.646-0.172-2.68-0.181l-0.464-0.003c-0.759-0.005-1.543-0.011-2.305-0.038-0.98-0.035-1.851-0.129-2.665-0.286-0.819-0.159-1.644-0.404-2.452-0.728-0.377-0.147-0.571-0.23-0.765-0.315l0.174 0.069c-0.564-0.243-1.113-0.5-1.635-0.748-0.020-0.009-0.040-0.019-0.060-0.028-0.658-0.314-1.315-0.629-1.97-0.944l-0.059-0.028c-0.042-0.020-0.083-0.040-0.124-0.060l-0.092-0.044-6.69-3.246 0.066 0.949 6.977 3.382c0.308 0.148 0.617 0.296 0.926 0.444 0.201 0.096 0.403 0.193 0.604 0.289 0.71 0.338 1.475 0.698 2.266 1.033 0.803 0.339 1.578 0.6 2.37 0.796 0.797 0.196 1.657 0.338 2.558 0.423 0.897 0.084 1.811 0.131 2.694 0.176 1.053 0.054 1.901 0.142 2.667 0.276 0.893 0.156 1.717 0.415 2.448 0.769l0.017 0.008c0.725 0.353 1.43 0.836 2.099 1.434 0.58 0.519 1.17 1.127 1.858 1.915 0.582 0.666 1.184 1.355 1.791 1.995 0.618 0.652 1.255 1.237 1.893 1.739 0.628 0.492 1.322 0.951 2.064 1.363 0.037 0.020 0.074 0.040 0.111 0.061 0.002 0.011 0.215 0.127 0.429 0.241l0.222 0.108c0.050 0.027 0.101 0.053 0.151 0.079-0.145-0.062 0.019 0.024 0.184 0.108l0.317 0.148c-0.27-0.114-0.018 0.014 0.235 0.141l0.534 0.243c0.733 0.362 1.466 0.72 2.197 1.078l6.438 3.123zM228.905 31.647l0.79-0.533-6.304-3.058c-4.912-2.245-5.634-2.605-6.355-2.967l4.154 1.887c-0.744-0.35-0.996-0.479-1.249-0.608l0.478 0.223-0.029-0.015c-0.469-0.227-0.624-0.308-0.779-0.389l0.305 0.146-0.15-0.078c-0.42-0.214-0.635-0.33-0.848-0.449l0.193 0.098c-0.037-0.020-0.075-0.040-0.112-0.061-0.754-0.419-1.46-0.885-2.097-1.386-0.648-0.509-1.294-1.103-1.921-1.764-0.611-0.644-1.214-1.335-1.798-2.003-0.681-0.779-1.264-1.381-1.837-1.893-0.657-0.587-1.352-1.061-2.058-1.403-0.71-0.344-1.511-0.595-2.381-0.747-0.756-0.132-1.594-0.219-2.637-0.272-0.887-0.046-1.805-0.093-2.705-0.177-0.914-0.086-1.787-0.23-2.595-0.429-0.805-0.199-1.593-0.464-2.408-0.808-0.799-0.339-1.566-0.699-2.276-1.038-0.68-0.325-1.358-0.651-2.036-0.977l-0.209-0.1-6.134-2.976 0.066 0.949 7.946 3.856 0.452 0.21c0.592 0.275 1.205 0.56 1.813 0.83 0.811 0.358 1.576 0.643 2.338 0.871 0.782 0.233 1.62 0.424 2.489 0.569 0.873 0.144 1.771 0.25 2.611 0.343 1.041 0.116 1.868 0.243 2.604 0.401 0.878 0.189 1.692 0.463 2.42 0.816l0.017 0.008c0.722 0.352 1.434 0.817 2.118 1.384 0.581 0.481 1.19 1.049 1.917 1.788 0.687 0.697 1.268 1.275 1.871 1.828 0.645 0.591 1.307 1.127 1.966 1.595 0.643 0.455 1.331 0.877 2.104 1.291 0.788 0.419 1.586 0.815 2.192 1.113 0.695 0.342 1.39 0.682 2.082 1.020l0.118 0.058 5.873 2.849zM193.452 9.938l-7.803-3.786 0.066 0.947 7.378 3.58c-2.978-1.286-2.242-0.927-1.505-0.568l3.747 1.644c0.835 0.397 1.541 0.719 2.277 0.999 0.703 0.276 1.526 0.496 2.379 0.624l0.064 0.008c0.803 0.116 1.681 0.169 2.684 0.165 0.040 0 0.081-0.001 0.121-0.001 0.266-0.002 0.533-0.005 0.801-0.009 0.096-0.002 0.191-0.004 0.288-0.006 0.213-0.004 0.426-0.008 0.635-0.013 0.322-0.007 0.643-0.014 0.964-0.020 1.047-0.018 1.944 0.024 2.742 0.13 0.913 0.12 1.747 0.361 2.479 0.716l0.014 0.007c0.727 0.354 1.426 0.856 2.079 1.492 0.575 0.56 1.16 1.234 1.79 2.062 0.204 0.269 0.408 0.54 0.611 0.81 0.351 0.466 0.713 0.948 1.073 1.412 0.612 0.787 1.191 1.44 1.769 1.995 0.584 0.562 1.231 1.065 1.928 1.496l0.049 0.028c0.714 0.433 1.46 0.813 2.161 1.16-3.245-1.442-2.524-1.082-1.803-0.723l3.999 1.801 7.563 3.669 0.789-0.532-8.093-3.927c-0.698-0.342-1.397-0.684-2.097-1.030-0.706-0.349-1.457-0.734-2.175-1.189-0.711-0.454-1.379-1.003-1.986-1.635-0.565-0.587-1.137-1.275-1.751-2.104 0.035 0.064-0.216-0.276-0.466-0.617l-0.298-0.428c-0.55-0.77-0.845-1.168-1.142-1.565l0.244 0.341c-0.608-0.817-1.183-1.487-1.756-2.048-0.633-0.619-1.31-1.107-2.012-1.449l-0.014-0.007c-0.707-0.343-1.516-0.575-2.403-0.69-0.796-0.103-1.683-0.14-2.711-0.112-0.487 0.013-0.976 0.031-1.465 0.050-0.457 0.017-0.914 0.034-1.368 0.047-1.040 0.029-1.942 0.002-2.761-0.083-0.875-0.092-1.727-0.284-2.535-0.571-0.748-0.27-1.463-0.592-2.305-0.994h-0c-0.583-0.278-1.164-0.557-1.745-0.836l-0.501-0.24zM186.105 5.175l-0.502 0.338 0.024 0.344 8.040 3.9c0.712 0.342 1.425 0.686 2.14 1.027 0.833 0.397 1.54 0.716 2.282 0.984 0.787 0.28 1.62 0.468 2.476 0.558 0.807 0.084 1.699 0.111 2.727 0.082 0.454-0.013 0.91-0.030 1.366-0.047 0.49-0.018 0.98-0.037 1.467-0.050 1.041-0.028 1.941 0.009 2.75 0.114 0.914 0.118 1.748 0.358 2.481 0.713l0.013 0.006c0.727 0.355 1.427 0.858 2.080 1.497 0.582 0.57 1.165 1.25 1.782 2.078 0.302 0.405 0.605 0.822 0.898 1.225 0.254 0.35 0.508 0.699 0.764 1.045 0.608 0.821 1.174 1.501 1.73 2.079 0.594 0.617 1.246 1.154 1.94 1.597 0.703 0.446 1.449 0.829 2.151 1.176-4.67-2.086-3.948-1.726-3.226-1.366l5.425 2.446 8.122 3.941 0.183-0.123-0.051-0.728-8.074-3.918c-0.673-0.329-1.348-0.659-2.022-0.992-0.711-0.351-1.465-0.739-2.17-1.204-0.688-0.458-1.347-1.027-1.958-1.694-0.545-0.595-1.111-1.297-1.728-2.147-0.161-0.221-0.321-0.443-0.481-0.665-0.384-0.532-0.78-1.082-1.177-1.61-0.606-0.807-1.183-1.472-1.764-2.031-0.636-0.612-1.315-1.096-2.018-1.439l-0.014-0.007c-0.708-0.344-1.516-0.579-2.398-0.701-0.802-0.11-1.686-0.153-2.702-0.129-0.643 0.015-1.303 0.042-1.941 0.069-0.298 0.012-0.596 0.025-0.893 0.036-1.058 0.040-1.968 0.027-2.781-0.038-0.908-0.072-1.77-0.245-2.564-0.513-0.835-0.284-1.632-0.655-2.314-0.981-0.619-0.296-1.237-0.593-1.854-0.89l-0.39-0.188-7.818-3.793zM187.139 4.479l-0.79 0.533 8.036 3.898c-4.301-1.876-3.68-1.572-3.059-1.27l4.95 2.177c0.675 0.322 1.465 0.69 2.287 0.97 0.773 0.262 1.616 0.43 2.503 0.501 0.803 0.064 1.703 0.076 2.751 0.037 0.297-0.011 0.594-0.023 0.891-0.036 0.64-0.027 1.302-0.054 1.948-0.069 1.030-0.024 1.927 0.019 2.743 0.131 0.909 0.125 1.742 0.369 2.475 0.724l0.016 0.008c0.727 0.355 1.427 0.853 2.082 1.483 0.591 0.569 1.177 1.243 1.791 2.061 0.398 0.53 0.795 1.080 1.178 1.612 0.161 0.222 0.321 0.445 0.482 0.666 0.612 0.842 1.171 1.537 1.71 2.125 0.597 0.651 1.24 1.208 1.912 1.654 0.694 0.458 1.439 0.842 2.142 1.188-3.847-1.713-3.127-1.353-2.405-0.994l4.602 2.071 7.767 3.768-0.066-0.948-7.339-3.56c-5.854-2.666-6.576-3.027-7.298-3.388l5.097 2.31c-0.827-0.407-1.512-0.77-2.166-1.216-0.672-0.46-1.325-1.042-1.941-1.728-0.031-0.034-0.062-0.070-0.093-0.105-0.509-0.575-1.030-1.23-1.63-2.051l-0.221-0.303c-0.471-0.645-0.958-1.312-1.448-1.946-0.608-0.786-1.191-1.437-1.784-1.99-0.64-0.597-1.322-1.074-2.029-1.418l-0.015-0.007c-0.712-0.345-1.516-0.588-2.39-0.722-0.804-0.123-1.681-0.179-2.682-0.169-0.785 0.008-1.593 0.036-2.375 0.064l-0.447 0.016c-1.086 0.038-1.971 0.029-2.784-0.027-0.926-0.064-1.794-0.225-2.581-0.479-0.828-0.27-1.6-0.629-2.32-0.973-5.598-2.499-6.335-2.86-7.071-3.222l4.827 2.143-7.255-3.52zM188.171 3.782l-0.79 0.533 7.123 3.456c0.746 0.36 1.494 0.72 2.243 1.078 0.712 0.341 1.475 0.695 2.289 0.96 0.767 0.248 1.615 0.405 2.52 0.467 0.807 0.056 1.683 0.064 2.758 0.026l0.446-0.016c0.784-0.028 1.594-0.057 2.382-0.065 1.015-0.010 1.905 0.047 2.723 0.172 0.899 0.138 1.728 0.389 2.462 0.745l0.016 0.008c0.729 0.355 1.432 0.847 2.090 1.461 0.603 0.562 1.196 1.223 1.812 2.020l0 0c0.492 0.637 0.98 1.305 1.452 1.952l0.221 0.303c0.602 0.823 1.123 1.478 1.634 2.053 0.024 0.027 0.048 0.055 0.072 0.082 0.601 0.67 1.238 1.238 1.895 1.688 0.642 0.438 1.317 0.796 2.135 1.198 0.735 0.361 1.468 0.72 2.2 1.078l7.207 3.497-0.066-0.948-6.912-3.354c-6.521-2.962-7.2-3.301-7.88-3.64l5.808 2.627c-0.672-0.33-1.45-0.724-2.165-1.221-0.664-0.461-1.315-1.045-1.936-1.735-0.531-0.591-1.081-1.27-1.731-2.135-0.548-0.729-1.114-1.484-1.692-2.2-0.613-0.76-1.206-1.393-1.811-1.935-0.651-0.583-1.348-1.056-2.059-1.401-0.715-0.347-1.516-0.599-2.38-0.749-0.803-0.14-1.672-0.213-2.655-0.224-0.897-0.010-1.824 0.010-2.722 0.030l-0.075 0.002c-1.092 0.024-1.973 0.010-2.773-0.046-0.935-0.065-1.805-0.223-2.584-0.47-0.837-0.265-1.628-0.635-2.325-0.961l-8.934-4.335zM189.204 3.086l-0.79 0.532 8.799 4.269c0.69 0.323 1.473 0.689 2.293 0.949 0.761 0.241 1.611 0.395 2.525 0.459 0.792 0.055 1.666 0.070 2.75 0.046l0.075-0.002c0.899-0.020 1.829-0.040 2.73-0.030 0.997 0.011 1.879 0.086 2.696 0.228 0.887 0.154 1.71 0.414 2.447 0.771 0.732 0.358 1.449 0.841 2.117 1.44 0.615 0.551 1.217 1.194 1.839 1.965 0.577 0.714 1.146 1.471 1.695 2.203 0.649 0.865 1.195 1.538 1.719 2.12 0.608 0.676 1.245 1.247 1.892 1.697 0.699 0.486 1.467 0.875 2.132 1.202 0.735 0.361 1.468 0.719 2.2 1.076l6.651 3.227-0.066-0.948-8.429-4.089c-0.784-0.392-1.486-0.754-2.164-1.223-0.66-0.457-1.314-1.035-1.943-1.719-0.17-0.184-0.353-0.39-0.533-0.599l-0.028-0.033c-0.354-0.411-0.732-0.874-1.155-1.413-0.012-0.016-0.024-0.030-0.036-0.046-0.013-0.017-0.027-0.035-0.041-0.052-0.128-0.163-0.255-0.325-0.382-0.486-0.097-0.123-0.197-0.248-0.296-0.372-0.042-0.053-0.084-0.106-0.126-0.158-0.355-0.444-0.642-0.791-0.935-1.134l0.056 0.068c-0.623-0.732-1.225-1.344-1.842-1.872-0.657-0.563-1.352-1.022-2.075-1.374-0.719-0.348-1.516-0.61-2.369-0.778-0.799-0.158-1.658-0.251-2.625-0.288-0.899-0.034-1.821-0.035-2.765-0.033-1.097 0.002-1.971-0.026-2.751-0.089-0.934-0.075-1.8-0.239-2.575-0.485-0.836-0.266-1.626-0.638-2.323-0.967l-8.371-4.062zM190.236 2.389l-0.79 0.532 8.237 3.997c0.688 0.325 1.47 0.693 2.291 0.954 0.756 0.24 1.604 0.4 2.519 0.474 0.773 0.063 1.64 0.091 2.73 0.089 0.947-0.002 1.871-0.001 2.775 0.033 0.981 0.036 1.852 0.132 2.664 0.292 0.874 0.172 1.692 0.441 2.43 0.799l0.019 0.009c0.732 0.357 1.442 0.828 2.11 1.401 0.627 0.537 1.239 1.159 1.87 1.9 0.078 0.092 0.156 0.186 0.234 0.28 0.508 0.609 1.005 1.237 1.475 1.837l0.021 0.027c0.013 0.017 0.026 0.032 0.038 0.049 0.376 0.481 0.688 0.863 1.006 1.24l-0.054-0.065c0.271 0.321 0.515 0.598 0.765 0.87l-0.017-0.019c0.616 0.67 1.255 1.236 1.9 1.682 0.663 0.459 1.358 0.817 2.132 1.204l8.297 4.025-0.066-0.948-7.871-3.819c-0.753-0.374-1.485-0.748-2.169-1.211-0.67-0.453-1.311-1.003-1.96-1.68-0.532-0.556-1.082-1.181-1.781-2.028-0.646-0.781-1.192-1.431-1.759-2.060-0.634-0.703-1.247-1.294-1.874-1.807-0.658-0.538-1.354-0.988-2.071-1.338l-0.020-0.010c-0.723-0.35-1.516-0.622-2.358-0.807-0.794-0.175-1.642-0.291-2.593-0.354-0.931-0.061-1.896-0.088-2.728-0.108-1.106-0.027-1.945-0.074-2.72-0.152-0.941-0.095-1.777-0.266-2.556-0.522-0.828-0.273-1.619-0.648-2.316-0.978l-7.809-3.789zM191.269 1.693l-0.79 0.532 7.674 3.723c0.689 0.327 1.471 0.698 2.286 0.966 0.762 0.251 1.58 0.418 2.502 0.511 0.766 0.077 1.599 0.124 2.701 0.151 0.836 0.020 1.805 0.047 2.738 0.108 0.964 0.064 1.824 0.181 2.631 0.359 0.861 0.19 1.673 0.468 2.414 0.827l0.021 0.010c0.734 0.358 1.447 0.819 2.12 1.369 0.637 0.521 1.259 1.121 1.902 1.833 0.217 0.239 0.463 0.519 0.705 0.802l0.048 0.057c0.034 0.039 0.067 0.078 0.101 0.117 0.014 0.016 0.028 0.033 0.042 0.049 0.166 0.192 0.451 0.531 0.734 0.872l0.137 0.17c0.696 0.842 1.241 1.463 1.769 2.014 0.626 0.654 1.272 1.207 1.919 1.646 0.67 0.454 1.394 0.823 2.139 1.193l7.74 3.755-0.066-0.948-7.315-3.549c-0.705-0.348-1.455-0.723-2.186-1.159-0.734-0.523-1.379-1.067-1.978-1.658l0.002 0.002c-0.282-0.279-0.557-0.562-0.825-0.85l-0.016-0.017c-0.033-0.035-0.068-0.073-0.101-0.11-0.042-0.046-0.083-0.090-0.127-0.137l-0.012-0.013c-0.205-0.223-0.446-0.491-0.684-0.762l-0.054-0.062c-0.569-0.647-1.181-1.335-1.798-1.979-0.646-0.674-1.27-1.244-1.907-1.742-0.076-0.059-0.152-0.117-0.228-0.174-0.008-0.006-0.015-0.012-0.023-0.017-0.016-0.012-0.032-0.023-0.047-0.034-0.519-0.386-1.107-0.749-1.726-1.059l-0.069-0.031-0.013-0.006c-0.726-0.352-1.515-0.633-2.347-0.835-0.788-0.192-1.626-0.329-2.562-0.42-0.927-0.090-1.874-0.145-2.688-0.189-1.094-0.060-1.921-0.13-2.682-0.229-0.962-0.126-1.82-0.317-2.649-0.575l0.111 0.030-0.005-0.002-0.005-0.002c-0.010-0.004-0.019-0.008-0.029-0.012-0.756-0.299-1.47-0.635-2.258-1.011l-7.246-3.515zM192.301 0.996l-0.79 0.533 7.113 3.451c0.79 0.377 1.506 0.714 2.265 1.014 0.705 0.224 1.547 0.411 2.413 0.527l0.079 0.009c0.751 0.097 1.573 0.167 2.664 0.227 1.010 0.055 1.855 0.109 2.699 0.19 0.947 0.092 1.797 0.231 2.597 0.426 0.849 0.206 1.656 0.494 2.398 0.853 0.008 0.004 0.016 0.008 0.024 0.012 0.734 0.358 1.45 0.808 2.128 1.339 0.648 0.507 1.28 1.084 1.933 1.766 0.622 0.649 1.235 1.338 1.806 1.987 0.715 0.813 1.272 1.411 1.806 1.938 0.585 0.577 1.217 1.111 1.889 1.592l0.047 0.032c0.715 0.425 1.459 0.798 2.159 1.144l7.184 3.485-0.066-0.949-6.758-3.279c-0.67-0.329-1.447-0.715-2.192-1.142-0.752-0.507-1.408-1.027-2.022-1.592l0.012 0.011c-0.554-0.51-1.128-1.085-1.861-1.864-0.584-0.619-1.21-1.277-1.84-1.894-0.658-0.645-1.293-1.194-1.939-1.678-0.013-0.010-0.026-0.019-0.039-0.029-0.603-0.452-1.285-0.874-2.003-1.234l-0.078-0.035-0.013-0.006c-0.47-0.234-1.037-0.463-1.623-0.652l-0.091-0.025c-0.105-0.038-0.309-0.099-0.514-0.155l-0.096-0.022c-0.783-0.208-1.611-0.366-2.531-0.485-0.051-0.007-0.102-0.013-0.152-0.019-0.056-0.007-0.113-0.014-0.169-0.021l-0.127-0.015c-0.070-0.008-0.14-0.016-0.211-0.024l-0.108-0.012c-0.076-0.008-0.151-0.017-0.226-0.025l-0.124-0.013c-0.066-0.007-0.131-0.014-0.196-0.020l-0.312-0.031c0.65 0.050 0.543 0.040 0.435 0.029l-0.748-0.059c0.308 0.020 0.064-0.003-0.18-0.026l-0.528-0.039c-1.076-0.096-1.89-0.194-2.64-0.317-0.962-0.161-1.803-0.376-2.616-0.653l0.116 0.034-0.008-0.003c-0.581-0.236-0.957-0.404-1.328-0.579l0.185 0.078c-0.863-0.383-1.235-0.563-1.607-0.745l0.471 0.209-6.683-3.242zM193.334 0.3l-0.79 0.532 6.55 3.178c0.368 0.177 0.733 0.351 1.099 0.52l0.039 0.018c0.181 0.083 0.363 0.165 0.546 0.246l0.014 0.006c0.186 0.082 0.374 0.162 0.562 0.24 0.685 0.238 1.512 0.449 2.362 0.594l0.096 0.014c0.743 0.122 1.551 0.219 2.621 0.314 1.251 0.098 1.487 0.12 1.724 0.143l-1.037-0.080 0.116 0.011c0.609 0.051 0.746 0.065 0.883 0.079l-0.485-0.040c0.468 0.042 0.597 0.055 0.725 0.069l-0.351-0.031 0.071 0.007c0.093 0.010 0.186 0.020 0.277 0.030l0.060 0.007c0.084 0.010 0.168 0.019 0.251 0.029l0.094 0.011c0.066 0.008 0.131 0.016 0.197 0.024l0.131 0.016c0.934 0.12 1.772 0.281 2.564 0.491 0.21 0.056 0.417 0.116 0.621 0.181 0.69 0.218 1.268 0.452 1.825 0.725l-0.077-0.034 0.013 0.006h0c0.734 0.353 1.454 0.796 2.139 1.307 0.008 0.006 0.015 0.011 0.023 0.017 0.055 0.041 0.109 0.085 0.164 0.127 0.599 0.46 1.19 0.974 1.801 1.573 0.633 0.62 1.262 1.28 1.847 1.902 0.732 0.777 1.302 1.348 1.849 1.851 0.288 0.266 0.598 0.531 0.918 0.784l0.034 0.026c0.113 0.089 0.23 0.175 0.346 0.262 0.053 0.039 0.104 0.080 0.157 0.119 0.035 0.025 0.071 0.049 0.106 0.074 0.136 0.098 0.273 0.195 0.413 0.288 0.731 0.419 1.503 0.803 2.169 1.13l6.627 3.215-0.066-0.949-6.201-3.009c-0.711-0.344-1.469-0.719-2.2-1.12-0.698-0.439-1.388-0.933-2.057-1.473-0.596-0.533-1.215-1.119-1.899-1.795-0.592-0.585-1.226-1.207-1.882-1.81-0.672-0.617-1.316-1.146-1.971-1.617-0.688-0.494-1.402-0.924-2.134-1.276-0.729-0.354-1.513-0.652-2.328-0.885-0.778-0.223-1.596-0.403-2.502-0.548-0.879-0.141-1.769-0.255-2.606-0.36-0.956-0.12-1.807-0.247-2.602-0.388-0.85-0.198-1.672-0.441-2.452-0.723-0.784-0.339-1.553-0.709-2.274-1.059l-6.12-2.969zM233.481 28.866l-4.556 3.073-6.123-2.971c-0.693-0.339-1.387-0.679-2.083-1.021-0.608-0.299-1.407-0.697-2.199-1.117-0.783-0.418-1.48-0.846-2.131-1.307-0.668-0.474-1.338-1.017-1.99-1.615-0.607-0.557-1.191-1.137-1.88-1.837-0.721-0.733-1.324-1.295-1.898-1.771-0.669-0.553-1.364-1.008-2.068-1.351l-0.016-0.008c-0.71-0.344-1.504-0.612-2.362-0.796-0.727-0.156-1.547-0.283-2.579-0.397-0.844-0.094-1.745-0.2-2.625-0.345-0.88-0.146-1.728-0.34-2.52-0.576-0.772-0.232-1.547-0.52-2.368-0.882h-0c-0.61-0.27-1.223-0.556-1.817-0.832l-0.454-0.211-8.080-3.92-0.107-1.531 0.001 0.001-0.066-0.949-0.001-0.001-0.107-1.53 0.001 0-0.067-0.948-0.002-0.001-0.044-0.637 0.744-0.502 0.001 0 0.791-0.534-0.001-0 6.438-4.342 6.251 3.033c0.718 0.349 1.485 0.717 2.257 1.051 0.763 0.277 1.576 0.517 2.409 0.711 0.783 0.139 1.63 0.265 2.582 0.385 0.839 0.105 1.731 0.22 2.614 0.362 0.916 0.147 1.744 0.328 2.532 0.554 0.829 0.238 1.626 0.541 2.369 0.901l0.034 0.016c0.73 0.356 1.449 0.787 2.138 1.282 0.663 0.476 1.316 1.011 1.995 1.636 0.659 0.606 1.294 1.229 1.888 1.816 0.681 0.673 1.298 1.255 1.885 1.782 0.656 0.529 1.338 1.018 2.021 1.448 0.72 0.395 1.474 0.767 2.182 1.11l6.332 3.072 0.087 1.24 0 0 0.194 2.77-0-0 0.066 0.949 0 0 0.087 1.239h0l0.087 1.24 0 0 0.107 1.53-0.001-0 0.051 0.73z"></path>
</symbol>
<symbol id="icon-logout" viewBox="0 0 33 32">
<path fill="#cd0d0d" style="fill: var(--color1, #cd0d0d)" d="M6.699 0h20.364c3.213 0 5.818 2.605 5.818 5.818v20.364c0 3.213-2.605 5.818-5.818 5.818h-20.364c-3.213 0-5.818-2.605-5.818-5.818v-20.364c0-3.213 2.605-5.818 5.818-5.818z"></path>
<path fill="#fff" style="fill: var(--color2, #fff)" d="M26.714 5.818h-20.231c-1.236 0-2.248 1.019-2.248 2.265v4.519h2.248v-4.542h20.231v15.89h-20.231v-4.553h-2.248v4.542c0 1.246 1.012 2.242 2.248 2.242h20.231c1.236 0 2.248-0.997 2.248-2.242v-15.856c0-1.257-1.012-2.265-2.248-2.265zM15.474 20.53l4.496-4.53-4.496-4.53v3.398h-11.24v2.265h11.24v3.398z"></path>
</symbol>
<symbol id="icon-my-account" viewBox="0 0 32 32">
<path d="M15.771 0.229c-8.706 0-15.771 7.066-15.771 15.771s7.066 15.771 15.771 15.771c8.706 0 15.771-7.066 15.771-15.771s-7.066-15.771-15.771-15.771zM15.771 4.96c2.618 0 4.731 2.113 4.731 4.731s-2.113 4.731-4.731 4.731c-2.618 0-4.731-2.113-4.731-4.731s2.113-4.731 4.731-4.731zM15.771 27.355c-3.943 0-7.428-2.019-9.463-5.078 0.047-3.139 6.309-4.858 9.463-4.858 3.138 0 9.416 1.719 9.463 4.858-2.035 3.060-5.52 5.078-9.463 5.078z"></path>
</symbol>
<symbol id="icon-linkedin" viewBox="0 0 32 32">
<path fill="#fff" style="fill: var(--color2, #fff)" d="M26.732 26.55h-4.597v-7.129c0-1.7-0.031-3.888-2.391-3.888-2.394 0-2.761 1.852-2.761 3.764v7.252h-4.597v-14.659h4.413v2.003h0.062c0.442-0.748 1.080-1.363 1.847-1.78s1.634-0.62 2.508-0.588c4.659 0 5.518 3.035 5.518 6.982l-0.002 8.042zM7.199 9.886c-0.528 0-1.043-0.155-1.482-0.445s-0.781-0.703-0.983-1.185c-0.202-0.483-0.255-1.014-0.152-1.526s0.357-0.983 0.73-1.353c0.373-0.37 0.848-0.621 1.366-0.723s1.054-0.050 1.541 0.15c0.488 0.2 0.904 0.538 1.197 0.973s0.45 0.945 0.45 1.467c0 0.347-0.069 0.69-0.203 1.011s-0.33 0.612-0.578 0.857c-0.248 0.245-0.542 0.44-0.865 0.573s-0.671 0.201-1.021 0.201zM9.497 26.55h-4.602v-14.66h4.602v14.66zM29.024 0.376h-26.439c-0.6-0.007-1.178 0.223-1.608 0.638s-0.675 0.982-0.682 1.576v26.287c0.007 0.594 0.252 1.162 0.681 1.577s1.008 0.645 1.608 0.639h26.439c0.602 0.007 1.182-0.222 1.613-0.637s0.678-0.984 0.686-1.579v-26.289c-0.009-0.595-0.256-1.163-0.686-1.578s-1.011-0.644-1.612-0.636z"></path>
</symbol>
<symbol id="icon-youtube" viewBox="0 0 46 32">
<path fill="#fff" style="fill: var(--color2, #fff)" d="M43.948 5.196c-0.501-1.873-1.969-3.349-3.831-3.853-3.401-0.936-17.006-0.936-17.006-0.936s-13.605 0-17.006 0.9c-1.826 0.504-3.33 2.017-3.831 3.889-0.895 3.421-0.895 10.515-0.895 10.515s0 7.13 0.895 10.515c0.501 1.873 1.969 3.349 3.831 3.853 3.437 0.936 17.006 0.936 17.006 0.936s13.605 0 17.006-0.9c1.862-0.504 3.33-1.981 3.831-3.853 0.895-3.421 0.895-10.515 0.895-10.515s0.036-7.13-0.895-10.551z"></path>
<path fill="#000" style="fill: var(--color3, #000)" d="M31.71 16.573l-11.951-6.923v13.846l11.951-6.923z"></path>
</symbol>
<symbol id="icon-redfox" viewBox="0 0 26 32">
<path d="M0 0.029v12.676l6.221-6.221-6.221-6.455z"></path>
<path d="M19.38 6.455l6.221 6.221v-12.676l-6.221 6.455z"></path>
<path d="M0.765 13.983l11.61 17.048-5.575-23.082-6.035 6.033z"></path>
<path d="M13.18 31.032l11.61-17.048-6.035-6.033-5.575 23.082z"></path>
<path d="M17.361 7.7h-9.176l4.588 19.992 4.588-19.992z"></path>
</symbol>
<symbol id="icon-twitter" viewBox="0 0 39 32">
<path d="M38 4.723c-1.4 0.7-2.8 0.933-4.433 1.167 1.633-0.933 2.8-2.333 3.267-4.2-1.4 0.933-3.033 1.4-4.9 1.867-1.4-1.4-3.5-2.333-5.6-2.333-4.9 0-8.633 4.667-7.467 9.333-6.3-0.233-11.9-3.267-15.867-7.933-2.1 3.5-0.933 7.933 2.333 10.267-1.167 0-2.333-0.467-3.5-0.933 0 3.5 2.567 6.767 6.067 7.7-1.167 0.233-2.333 0.467-3.5 0.233 0.933 3.033 3.733 5.367 7.233 5.367-2.8 2.1-7 3.267-10.967 2.8 3.5 2.1 7.467 3.5 11.667 3.5 14.233 0 22.167-11.9 21.7-22.867 1.633-0.933 3.033-2.333 3.967-3.967z"></path>
</symbol>
</defs>
</svg>
